<svg id="_9" data-name="9" xmlns="http://www.w3.org/2000/svg" width="58" height="51" viewBox="0 0 58 51"><defs><style>.cls-1{fill:#ff4dbf;stroke:#ff4dbf;stroke-miterlimit:10;}</style></defs><path class="cls-1" d="M29,18.3h.6s.6-1,.2.1c0,0,.5.3.5.7a.876.876,0,0,1-.2.6s.1.3,0,.4.4.2.5.1,3.5-6.4,7.2-9.6c3.8-3.2,9.3-6.8,13.1-6.7s3.4,2.2,2.9,3.4a23.34832,23.34832,0,0,1-1.7,3,7.812,7.812,0,0,1-.5,1.2c-.4.3-.6.5-.6.8a9.005,9.005,0,0,1-.3,1.6.84375.84375,0,0,0-.2.7c-.1.4.2.9-.1,1.2a1.98311,1.98311,0,0,0-.3,1.4,2.60723,2.60723,0,0,1-.3,1.1,5.72144,5.72144,0,0,0-.1,1.4.89389.89389,0,0,1-.4.8c-.1.2-.7.6-.7.9,0,.4.2.9-.4,1.4a5.701,5.701,0,0,1-3.5.8c.7.7.9.5.8,1a1.75482,1.75482,0,0,0,.6,1.5,6.65823,6.65823,0,0,0,1.2.6c.5.2,1.1,1,.5,1.4s-1.2.9-.8,1.5,1.2,1,.8,1.5c-.4.6-1.2.6-1.4,1.1-.2.4-.6,1-.4,1.4s.6.8.1,1.2a4.73966,4.73966,0,0,0-1.2,1.3,2.111,2.111,0,0,0,.4,2.3,28.05193,28.05193,0,0,0,2.5,3.1,18.8448,18.8448,0,0,1,2.6,2.2c.6.8,1.3,2.2.4,3s-2.6-.4-3.1-1.6a19.254,19.254,0,0,0-2.3-4.3c-.7-.7-1.5-1.4-2-1.3s-1,.8-1.2,1c-.2.1-1-.2-1.2,0s-1.2,1.5-1.7,1.7c-.4.2-1-.4-.9-1.1,0-.7-.1-1.3-.4-1.3-.4,0-1.9.1-2.1-1.2a15.40666,15.40666,0,0,0-.9-2.8c-.3-.6-3.8-8.7-4.2-9.6-.4-.8-.8-.9-.8-.7s0,2.3-.1,3.3c0,1,.4,4.1-.8,4.2-1.3-.2-.8-3.2-.8-4.2s-.1-3.2-.1-3.3c0-.2-.3-.1-.8.7-.4.8-3.9,8.9-4.2,9.6a9.135,9.135,0,0,0-.9,2.8c-.2,1.3-1.8,1.2-2.1,1.2-.4,0-.5.6-.4,1.3,0,.7-.5,1.3-.9,1.1a13.62369,13.62369,0,0,1-1.7-1.7c-.2-.2-1,.1-1.2,0s-.7-.9-1.2-1-1.4.6-2,1.3a21.7502,21.7502,0,0,0-2.3,4.3c-.5,1.2-2.2,2.4-3.1,1.6s-.2-2.2.4-3a18.8449,18.8449,0,0,1,2.6-2.2c.8-.7,1.7-2.2,2.5-3.1a2.34831,2.34831,0,0,0,.4-2.3,4.73966,4.73966,0,0,0-1.2-1.3c-.5-.4-.1-.9.1-1.2.2-.4-.2-.9-.4-1.4-.2-.4-1-.5-1.4-1.1s.3-.9.8-1.5c.4-.6-.2-1.1-.8-1.5s0-1.1.5-1.4a6.65823,6.65823,0,0,0,1.2-.6,1.75485,1.75485,0,0,0,.6-1.5c-.1-.6.1-.3.8-1a5.701,5.701,0,0,1-3.5-.8c-.6-.5-.4-1-.4-1.4s-.6-.8-.7-.9a2.93188,2.93188,0,0,1-.4-.8c0-.4.1-1.1-.1-1.4a4.50835,4.50835,0,0,1-.3-1.1c0-.2,0-1.1-.3-1.4-.3-.4,0-.9-.1-1.2a6.37292,6.37292,0,0,0-.2-.7c-.4-.3-.5-1.3-.5-1.6s-.2-.5-.4-.8c-.3-.2-.6-1.2-.6-1.2a23.34832,23.34832,0,0,1-1.7-3C3.8,6.1,3.4,4,7.2,3.9s9.3,3.5,13.1,6.7,7.1,9.5,7.2,9.6.6,0,.5-.1,0-.4,0-.4a.876.876,0,0,1-.2-.6c0-.4.5-.7.5-.7-.4-1.1.2-.1.2-.1Z"/></svg>