<?xml version="1.0" encoding="utf-8"?>
<!-- Generator: Adobe Illustrator 24.3.0, SVG Export Plug-In . SVG Version: 6.00 Build 0)  -->
<svg version="1.1" id="_x32_" xmlns="http://www.w3.org/2000/svg" xmlns:xlink="http://www.w3.org/1999/xlink" x="0px" y="0px"
	 viewBox="0 0 512 512" style="enable-background:new 0 0 512 512;" xml:space="preserve">
<style type="text/css">
	.st0{fill:#FF4DBF;}
</style>
<g>
	<path class="st0" d="M437,75C390.8,28.7,326.6,0,256,0C185.4,0,121.2,28.7,75,75C28.7,121.2,0,185.4,0,256
		c0,70.6,28.7,134.8,75,181c46.2,46.3,110.4,75,181,75c70.6,0,134.8-28.7,181-75c46.3-46.2,75-110.4,75-181
		C512,185.4,483.3,121.2,437,75z M256,300.4c-25.3,0-45.8-20.5-45.8-45.8c0-25.3,20.5-45.8,45.8-45.8c25.3,0,45.8,20.5,45.8,45.8
		C301.8,280,281.3,300.4,256,300.4z M397.6,397.6c-31.1,31.1-72.1,51.9-118,57.2c2-110.2,68.2-147.4,89.3-157.6
		c7.8-3.8,8.5-12.4,8.5-12.4l10.8-73.3c0.6-4.2-0.5-8.5-3.1-11.9s-5.4-6.2-13.8-7.7c0,0-65.5-12.9-115.2-12.9
		c-49.7,0-115.2,12.9-115.2,12.9c-8.5,1.5-11.3,4.4-13.8,7.7c-2.6,3.4-3.7,7.7-3.1,11.9l10.8,73.3c0,0,0.7,8.6,8.5,12.4
		c21.1,10.2,87.3,47.4,89.3,157.6c-45.9-5.4-87-26.2-118.1-57.2c-30.9-30.9-51.7-71.8-57.2-117.4c3-1.7,7.4-3.4,13.4-4.3
		c16.4-2.3,43.8-3.8,43.8-3.8l-7.3-55.2c0,0-32.4,5.8-48.2,3.4c7.4-41,27.1-77.6,55.4-105.9c36.3-36.3,86.2-58.6,141.6-58.7
		c55.4,0,105.3,22.4,141.6,58.7c28.3,28.3,48,64.9,55.4,105.9c-15.8,2.4-48.2-3.4-48.2-3.4l-7.3,55.2c0,0,27.4,1.5,43.8,3.8
		c6.1,0.9,10.4,2.6,13.4,4.3C449.3,325.8,428.5,366.7,397.6,397.6z"/>
	<path class="st0" d="M259.8,180.2c-16.5,0-31.4,6.7-42.2,17.5c-10.8,10.9-17.5,25.7-17.5,42.2c0,16.5,6.7,31.4,17.5,42.3
		c10.9,10.8,25.7,17.5,42.2,17.5c16.5,0,31.4-6.7,42.2-17.5c10.8-10.9,17.5-25.7,17.5-42.3c0-16.6-6.7-31.4-17.5-42.2
		C291.1,186.8,276.3,180.2,259.8,180.2z"/>
</g>
</svg>
