<?xml version="1.0" encoding="utf-8"?>
<!-- Generator: Adobe Illustrator 24.3.0, SVG Export Plug-In . SVG Version: 6.00 Build 0)  -->
<svg version="1.1" id="_x32_" xmlns="http://www.w3.org/2000/svg" xmlns:xlink="http://www.w3.org/1999/xlink" x="0px" y="0px"
	 viewBox="0 0 512 512" style="enable-background:new 0 0 512 512;" xml:space="preserve">
<style type="text/css">
	.st0{fill:none;stroke:#FF4DBF;stroke-width:21;}
	.st1{fill:#FFFFFF;}
</style>
<g>
	<g>
		<g>
			<path class="st0" d="M429.7,93.3C386.4,49.9,326.2,23,260,23c-66.2,0-126.4,26.9-169.7,70.3C46.9,136.6,20,196.8,20,263
				c0,66.2,26.9,126.4,70.3,169.7C133.6,476.1,193.8,503,260,503c66.2,0,126.3-26.9,169.7-70.3C473.1,389.4,500,329.2,500,263
				C500,196.8,473.1,136.6,429.7,93.3z M260,304.7c-23.7,0-42.9-19.2-42.9-42.9c0-23.7,19.2-42.9,42.9-42.9
				c23.7,0,42.9,19.2,42.9,42.9C302.9,285.5,283.7,304.7,260,304.7z M392.8,395.8c-29.2,29.1-67.6,48.6-110.7,53.7
				c1.9-103.3,63.9-138.2,83.7-147.8c7.3-3.5,8-11.6,8-11.6l10.1-68.7c0.6-3.9-0.5-8-2.9-11.1c-2.4-3.2-5.1-5.9-13-7.3
				c0,0-61.4-12.1-108-12.1c-46.6,0-108,12.1-108,12.1c-7.9,1.4-10.6,4.1-13,7.3c-2.4,3.2-3.5,7.2-2.9,11.1l10.1,68.7
				c0,0,0.6,8,8,11.6c19.8,9.6,81.9,44.5,83.7,147.7c-43-5-81.5-24.5-110.7-53.7c-29-29-48.4-67.3-53.6-110.1
				c2.8-1.6,6.9-3.2,12.6-4c15.4-2.2,41-3.6,41-3.6l-6.8-51.8c0,0-30.4,5.4-45.2,3.2c6.9-38.4,25.4-72.7,52-99.2
				c34.1-34,80.8-55,132.8-55c51.9,0,98.7,21,132.8,55c26.5,26.5,45,60.8,52,99.2c-14.8,2.3-45.2-3.2-45.2-3.2l-6.8,51.8
				c0,0,25.6,1.4,41,3.6c5.7,0.8,9.8,2.5,12.6,4C441.2,328.5,421.8,366.7,392.8,395.8z"/>
			<path class="st1" d="M429.7,93.3C386.4,49.9,326.2,23,260,23c-66.2,0-126.4,26.9-169.7,70.3C46.9,136.6,20,196.8,20,263
				c0,66.2,26.9,126.4,70.3,169.7C133.6,476.1,193.8,503,260,503c66.2,0,126.3-26.9,169.7-70.3C473.1,389.4,500,329.2,500,263
				C500,196.8,473.1,136.6,429.7,93.3z M260,304.7c-23.7,0-42.9-19.2-42.9-42.9c0-23.7,19.2-42.9,42.9-42.9
				c23.7,0,42.9,19.2,42.9,42.9C302.9,285.5,283.7,304.7,260,304.7z M392.8,395.8c-29.2,29.1-67.6,48.6-110.7,53.7
				c1.9-103.3,63.9-138.2,83.7-147.8c7.3-3.5,8-11.6,8-11.6l10.1-68.7c0.6-3.9-0.5-8-2.9-11.1c-2.4-3.2-5.1-5.9-13-7.3
				c0,0-61.4-12.1-108-12.1c-46.6,0-108,12.1-108,12.1c-7.9,1.4-10.6,4.1-13,7.3c-2.4,3.2-3.5,7.2-2.9,11.1l10.1,68.7
				c0,0,0.6,8,8,11.6c19.8,9.6,81.9,44.5,83.7,147.7c-43-5-81.5-24.5-110.7-53.7c-29-29-48.4-67.3-53.6-110.1
				c2.8-1.6,6.9-3.2,12.6-4c15.4-2.2,41-3.6,41-3.6l-6.8-51.8c0,0-30.4,5.4-45.2,3.2c6.9-38.4,25.4-72.7,52-99.2
				c34.1-34,80.8-55,132.8-55c51.9,0,98.7,21,132.8,55c26.5,26.5,45,60.8,52,99.2c-14.8,2.3-45.2-3.2-45.2-3.2l-6.8,51.8
				c0,0,25.6,1.4,41,3.6c5.7,0.8,9.8,2.5,12.6,4C441.2,328.5,421.8,366.7,392.8,395.8z"/>
		</g>
		<path class="st1" d="M263.5,191.9c-15.5,0-29.4,6.2-39.6,16.4c-10.2,10.2-16.4,24.1-16.4,39.6c0,15.5,6.2,29.4,16.4,39.6
			c10.2,10.2,24.1,16.4,39.6,16.4c15.5,0,29.4-6.2,39.6-16.4c10.2-10.2,16.4-24.1,16.4-39.6c0-15.5-6.2-29.4-16.4-39.6
			C292.9,198.2,279,191.9,263.5,191.9z"/>
	</g>
</g>
</svg>
