<svg id="レイヤー_1" data-name="レイヤー 1" xmlns="http://www.w3.org/2000/svg" width="200" height="58.87923" viewBox="0 0 200 58.87923"><defs><style>.cls-1,.cls-10,.cls-11,.cls-12,.cls-13,.cls-14,.cls-15,.cls-16,.cls-17,.cls-18,.cls-19,.cls-20,.cls-21,.cls-22,.cls-23,.cls-24,.cls-29,.cls-30,.cls-31,.cls-32,.cls-33,.cls-34,.cls-35,.cls-36,.cls-37,.cls-38,.cls-39,.cls-4,.cls-40,.cls-41,.cls-42,.cls-43,.cls-46,.cls-47,.cls-48,.cls-49,.cls-5,.cls-52,.cls-53,.cls-6,.cls-7,.cls-8,.cls-9{isolation:isolate;}.cls-1,.cls-10,.cls-12,.cls-13,.cls-15,.cls-16,.cls-18,.cls-19,.cls-20,.cls-21,.cls-22,.cls-23,.cls-24,.cls-4,.cls-5{font-size:12.6927px;}.cls-1,.cls-10,.cls-11,.cls-12,.cls-13,.cls-14,.cls-15,.cls-19,.cls-20,.cls-21,.cls-22,.cls-25,.cls-27,.cls-29,.cls-30,.cls-32,.cls-33,.cls-35,.cls-36,.cls-38,.cls-39,.cls-4,.cls-41,.cls-42,.cls-44,.cls-46,.cls-47,.cls-49,.cls-52,.cls-6,.cls-7{fill:none;}.cls-1,.cls-10,.cls-11,.cls-12,.cls-19,.cls-20,.cls-25,.cls-29,.cls-32,.cls-35,.cls-38,.cls-41,.cls-44,.cls-46,.cls-49,.cls-6{stroke:#fff;}.cls-1,.cls-10,.cls-11,.cls-12,.cls-13,.cls-14,.cls-15,.cls-19,.cls-20,.cls-21,.cls-22,.cls-27,.cls-29,.cls-30,.cls-32,.cls-33,.cls-35,.cls-36,.cls-38,.cls-39,.cls-4,.cls-41,.cls-42,.cls-46,.cls-47,.cls-49,.cls-52,.cls-6,.cls-7{stroke-linecap:round;stroke-linejoin:round;}.cls-1,.cls-10,.cls-11,.cls-12,.cls-19,.cls-20,.cls-29,.cls-49,.cls-6{stroke-width:5px;}.cls-1,.cls-10,.cls-11,.cls-12,.cls-13,.cls-14,.cls-15,.cls-16,.cls-17,.cls-18,.cls-19,.cls-20,.cls-21,.cls-22,.cls-23,.cls-24,.cls-29,.cls-30,.cls-31,.cls-32,.cls-33,.cls-34,.cls-35,.cls-36,.cls-37,.cls-38,.cls-39,.cls-4,.cls-40,.cls-41,.cls-42,.cls-43,.cls-46,.cls-47,.cls-48,.cls-49,.cls-5,.cls-52,.cls-53,.cls-6,.cls-7,.cls-8{font-family:VDL-LogoMaru-Regular-90ms-RKSJ-H, VDL-LogoMaru;}.cls-1,.cls-4,.cls-5{letter-spacing:-0.08298em;}.cls-2{letter-spacing:-0.09802em;}.cls-3{letter-spacing:-0.05501em;}.cls-13,.cls-14,.cls-15,.cls-30,.cls-4,.cls-52,.cls-7{stroke:red;}.cls-16,.cls-17,.cls-18,.cls-31,.cls-5,.cls-53,.cls-8{fill:#f72626;}.cls-29,.cls-30,.cls-31,.cls-6,.cls-7,.cls-8{font-size:7.61562px;}.cls-6,.cls-7,.cls-8{letter-spacing:-0.109em;}.cls-10,.cls-13,.cls-16{letter-spacing:-0.08398em;}.cls-11,.cls-14,.cls-17{font-size:8.88489px;letter-spacing:-0.092em;}.cls-12,.cls-15,.cls-18{letter-spacing:-0.05901em;}.cls-19,.cls-21,.cls-23{letter-spacing:0.10898em;}.cls-20,.cls-22,.cls-24{letter-spacing:-0.13903em;}.cls-21,.cls-22,.cls-27{stroke:#d3c11c;}.cls-21,.cls-22,.cls-47{stroke-width:2px;}.cls-23,.cls-24,.cls-26{fill:#f0e21f;}.cls-28{fill:red;}.cls-29,.cls-30,.cls-31{letter-spacing:-0.03706em;}.cls-32,.cls-33,.cls-34,.cls-35,.cls-36,.cls-37,.cls-38,.cls-39,.cls-40,.cls-41,.cls-42,.cls-43,.cls-46,.cls-47,.cls-48{font-size:26.53225px;}.cls-32,.cls-38,.cls-41,.cls-46{stroke-width:8px;}.cls-32,.cls-33,.cls-34{letter-spacing:-0.04098em;}.cls-33,.cls-36,.cls-39,.cls-42{stroke:#00156f;}.cls-33,.cls-39,.cls-42,.cls-44{stroke-width:3px;}.cls-34,.cls-37,.cls-40,.cls-43,.cls-45{fill:#00156f;}.cls-35{stroke-width:8px;}.cls-35,.cls-36,.cls-37{letter-spacing:-0.09099em;}.cls-36{stroke-width:3px;}.cls-38,.cls-39,.cls-40{letter-spacing:-0.056em;}.cls-41,.cls-42,.cls-43{letter-spacing:-0.048em;}.cls-46,.cls-47,.cls-48{letter-spacing:-0.01899em;}.cls-47{stroke:#f932ef;}.cls-48{fill:#f932ef;}.cls-49,.cls-52,.cls-53{font-size:8.97061px;letter-spacing:-0.07005em;}.cls-50{letter-spacing:-0.07996em;}.cls-51{letter-spacing:-0.02204em;}.cls-54{font-size:11px;fill:#fff;font-family:KozGoPr6N-Bold-90ms-RKSJ-H, Kozuka Gothic Pr6N;letter-spacing:-0.00999em;}</style></defs><text class="cls-1" transform="translate(42.10938 17.48172)">ア<tspan class="cls-2" x="11.63965" y="0">カ</tspan><tspan class="cls-3" x="23.08838" y="0">チ</tspan></text><text class="cls-4" transform="translate(42.10938 17.48172)">ア<tspan class="cls-2" x="11.63965" y="0">カ</tspan><tspan class="cls-3" x="23.08838" y="0">チ</tspan></text><text class="cls-5" transform="translate(42.10938 17.48172)">ア<tspan class="cls-2" x="11.63965" y="0">カ</tspan><tspan class="cls-3" x="23.08838" y="0">チ</tspan></text><text class="cls-6" transform="translate(80.57568 17.4407)">ェ</text><text class="cls-7" transform="translate(80.57568 17.4407)">ェ</text><text class="cls-8" transform="translate(80.57568 17.4407)">ェ</text><g class="cls-9"><text class="cls-10" transform="translate(89.75391 17.4407)">リ</text><text class="cls-11" transform="translate(102.35645 16.45035)">ー</text><text class="cls-12" transform="translate(111.21729 17.4407)">ナ</text></g><g class="cls-9"><text class="cls-13" transform="translate(89.75391 17.4407)">リ</text><text class="cls-14" transform="translate(102.35645 16.45035)">ー</text><text class="cls-15" transform="translate(111.21729 17.4407)">ナ</text></g><g class="cls-9"><text class="cls-16" transform="translate(89.75391 17.4407)">リ</text><text class="cls-17" transform="translate(102.35645 16.45035)">ー</text><text class="cls-18" transform="translate(111.21729 17.4407)">ナ</text></g><g class="cls-9"><text class="cls-19" transform="translate(124.74805 17.81473)">4</text><text class="cls-20" transform="translate(136.14551 17.81473)">世</text></g><g class="cls-9"><text class="cls-21" transform="translate(124.74805 17.81473)">4</text><text class="cls-22" transform="translate(136.14551 17.81473)">世</text></g><g class="cls-9"><text class="cls-23" transform="translate(124.74805 17.81473)">4</text><text class="cls-24" transform="translate(136.14551 17.81473)">世</text></g><path class="cls-25" d="M155.76631,5.9538a.7653.7653,0,1,0-1.41859-.00731,1.801,1.801,0,0,1-2.53771.16328,2.23947,2.23947,0,0,1-.24974-2.09572.88013.88013,0,1,0-.75718-.31033c-.33443.58987-.898,1.29709-1.6487,1.31767a1.801,1.801,0,0,1-1.69321-1.89727.76509.76509,0,1,0-.68663-.0359l-.40811,3.32147,6.45531,2.64564L154.862,6.40279A.76494.76494,0,0,0,155.76631,5.9538Z"/><path class="cls-25" d="M152.69508,10.49115a.56933.56933,0,0,1-.74272.3109l-.00027-.00011-6.1919-2.53769a.56929.56929,0,0,1-.31094-.74261l0-.00011.018-.0438a.56931.56931,0,0,1,.74251-.3113l.00032.00013L152.402,9.70424a.56941.56941,0,0,1,.31125.74267l-.00018.00044Z"/><path class="cls-26" d="M155.76631,5.9538a.7653.7653,0,1,0-1.41859-.00731,1.801,1.801,0,0,1-2.53771.16328,2.23947,2.23947,0,0,1-.24974-2.09572.88013.88013,0,1,0-.75718-.31033c-.33443.58987-.898,1.29709-1.6487,1.31767a1.801,1.801,0,0,1-1.69321-1.89727.76509.76509,0,1,0-.68663-.0359l-.40811,3.32147,6.45531,2.64564L154.862,6.40279A.76494.76494,0,0,0,155.76631,5.9538Z"/><path class="cls-26" d="M152.69508,10.49115a.56933.56933,0,0,1-.74272.3109l-.00027-.00011-6.1919-2.53769a.56929.56929,0,0,1-.31094-.74261l0-.00011.018-.0438a.56931.56931,0,0,1,.74251-.3113l.00032.00013L152.402,9.70424a.56941.56941,0,0,1,.31125.74267l-.00018.00044Z"/><path class="cls-27" d="M155.76631,5.9538a.7653.7653,0,1,0-1.41859-.00731,1.801,1.801,0,0,1-2.53771.16328,2.23947,2.23947,0,0,1-.24974-2.09572.88013.88013,0,1,0-.75718-.31033c-.33443.58987-.898,1.29709-1.6487,1.31767a1.801,1.801,0,0,1-1.69321-1.89727.76509.76509,0,1,0-.68663-.0359l-.40811,3.32147,6.45531,2.64564L154.862,6.40279A.76494.76494,0,0,0,155.76631,5.9538Z"/><path class="cls-27" d="M152.69508,10.49115a.56933.56933,0,0,1-.74272.3109l-.00027-.00011-6.1919-2.53769a.56929.56929,0,0,1-.31094-.74261l0-.00011.018-.0438a.56931.56931,0,0,1,.74251-.3113l.00032.00013L152.402,9.70424a.56941.56941,0,0,1,.31125.74267l-.00018.00044Z"/><path class="cls-25" d="M81.82448,7.19017l-.33909-.18659a.62277.62277,0,0,0-.83327.28013l-.63944,1.16207a.62265.62265,0,0,0,.20951.85344l.3391.18659a.62272.62272,0,0,0,.83343-.27955l.63944-1.16208A.62284.62284,0,0,0,81.82448,7.19017Z"/><path class="cls-25" d="M80.34162,6.55573l-.69173-1.26979a.56732.56732,0,0,0-.53392-.29873.67527.67527,0,0,0-.54615.356l-.62489,1.13563-.62479,1.13545a.67412.67412,0,0,0-.00833.65167.56734.56734,0,0,0,.53788.29154l1.44274-.095a.67551.67551,0,0,0,.53849-.3555l.24933-.45312.24934-.45313A.67455.67455,0,0,0,80.34162,6.55573Z"/><path class="cls-25" d="M84.76488,8.09557a.5669.5669,0,0,0-.53791-.29105l-1.44284.09522a.67445.67445,0,0,0-.53878.35511L81.996,8.708l-.24933.45312a.6754.6754,0,0,0-.01174.64536l.69184,1.26961a.567.567,0,0,0,.534.29824.67461.67461,0,0,0,.546-.35579l.62478-1.13546.6249-1.13563A.67582.67582,0,0,0,84.76488,8.09557Z"/><path class="cls-28" d="M81.82448,7.19017l-.33909-.18659a.62277.62277,0,0,0-.83327.28013l-.63944,1.16207a.62265.62265,0,0,0,.20951.85344l.3391.18659a.62272.62272,0,0,0,.83343-.27955l.63944-1.16208A.62284.62284,0,0,0,81.82448,7.19017Z"/><path class="cls-28" d="M80.34162,6.55573l-.69173-1.26979a.56732.56732,0,0,0-.53392-.29873.67527.67527,0,0,0-.54615.356l-.62489,1.13563-.62479,1.13545a.67412.67412,0,0,0-.00833.65167.56734.56734,0,0,0,.53788.29154l1.44274-.095a.67551.67551,0,0,0,.53849-.3555l.24933-.45312.24934-.45313A.67455.67455,0,0,0,80.34162,6.55573Z"/><path class="cls-28" d="M84.76488,8.09557a.5669.5669,0,0,0-.53791-.29105l-1.44284.09522a.67445.67445,0,0,0-.53878.35511L81.996,8.708l-.24933.45312a.6754.6754,0,0,0-.01174.64536l.69184,1.26961a.567.567,0,0,0,.534.29824.67461.67461,0,0,0,.546-.35579l.62478-1.13546.6249-1.13563A.67582.67582,0,0,0,84.76488,8.09557Z"/><text class="cls-29" transform="translate(151.78418 17.55399)">の</text><text class="cls-30" transform="translate(151.78418 17.55399)">の</text><text class="cls-31" transform="translate(151.78418 17.55399)">の</text><text class="cls-32" transform="translate(9.27621 53.95116) rotate(-10.12309)">ジ</text><text class="cls-33" transform="translate(9.27621 53.95116) rotate(-10.12309)">ジ</text><text class="cls-34" transform="translate(9.27621 53.95116) rotate(-10.12309)">ジ</text><text class="cls-35" transform="translate(89.54003 58.87774) rotate(0.04412)">ー</text><text class="cls-36" transform="translate(89.54003 58.87774) rotate(0.04412)">ー</text><text class="cls-37" transform="translate(89.54003 58.87774) rotate(0.04412)">ー</text><text class="cls-38" transform="translate(63.53417 54.42481) rotate(-7.86174)">ニ</text><text class="cls-39" transform="translate(63.53417 54.42481) rotate(-7.86174)">ニ</text><text class="cls-40" transform="translate(63.53417 54.42481) rotate(-7.86174)">ニ</text><text class="cls-41" transform="translate(32.79897 47.92615) rotate(11.16276)">ム</text><text class="cls-42" transform="translate(32.79897 47.92615) rotate(11.16276)">ム</text><text class="cls-43" transform="translate(32.79897 47.92615) rotate(11.16276)">ム</text><path class="cls-44" d="M94.15178,33.71378h-1.0791a.59231.59231,0,0,0-.5922.59219v4.49135a.59231.59231,0,0,0,.5922.59219h1.079a.5923.5923,0,0,0,.5922-.59219V34.306A.59224.59224,0,0,0,94.15178,33.71378Z"/><path class="cls-44" d="M100.11965,39.0989a2.67294,2.67294,0,1,0,2.67259,2.67329h0A2.67594,2.67594,0,0,0,100.11965,39.0989Zm0,3.90492a1.23164,1.23164,0,1,1,1.23165-1.23164A1.23165,1.23165,0,0,1,100.11965,43.00382Z"/><path class="cls-44" d="M110.84846,39.0989a2.67294,2.67294,0,1,0,2.67259,2.67329h0A2.67594,2.67594,0,0,0,110.84846,39.0989Zm0,3.90492a1.23164,1.23164,0,1,1,1.23094-1.23234v.0007A1.23238,1.23238,0,0,1,110.84846,43.00382Z"/><circle class="cls-44" cx="100.11965" cy="41.77218" r="0.42217"/><path class="cls-44" d="M110.84846,41.35a.42218.42218,0,1,0,.42217.42219v0A.42225.42225,0,0,0,110.84846,41.35Z"/><path class="cls-44" d="M115.20248,35.04349l-3.81121-.73752-3.50242-2.65733a4.03252,4.03252,0,0,0-2.43714-.81965H97.14186a1.79248,1.79248,0,0,0-1.79263,1.79188v7.90145a.89654.89654,0,0,0,.89666.896h.70482a3.1885,3.1885,0,0,1,6.33777,0h4.39039a3.18847,3.18847,0,0,1,6.33772,0H115.395a.89592.89592,0,0,0,.896-.89583V36.363A1.34376,1.34376,0,0,0,115.20248,35.04349ZM96.522,34.62206a.22393.22393,0,0,1-.22383-.22382V32.62087a.84479.84479,0,0,1,.84365-.84365h4.95132V34.622H96.522Zm10.72956,2.08254H105.996a.16277.16277,0,0,1,0-.32554h1.25563a.16277.16277,0,1,1,.00095.32554h-.001Zm2.76123-2.15885a.11249.11249,0,0,1-.10608.07632h-7.076v-2.8448h2.621a3.10325,3.10325,0,0,1,1.86383.62637l2.658,2.01715a.11243.11243,0,0,1,.03929.125Z"/><path class="cls-45" d="M94.15178,33.71378h-1.0791a.59231.59231,0,0,0-.5922.59219v4.49135a.59231.59231,0,0,0,.5922.59219h1.079a.5923.5923,0,0,0,.5922-.59219V34.306A.59224.59224,0,0,0,94.15178,33.71378Z"/><path class="cls-45" d="M100.11965,39.0989a2.67294,2.67294,0,1,0,2.67259,2.67329h0A2.67594,2.67594,0,0,0,100.11965,39.0989Zm0,3.90492a1.23164,1.23164,0,1,1,1.23165-1.23164A1.23165,1.23165,0,0,1,100.11965,43.00382Z"/><path class="cls-45" d="M110.84846,39.0989a2.67294,2.67294,0,1,0,2.67259,2.67329h0A2.67594,2.67594,0,0,0,110.84846,39.0989Zm0,3.90492a1.23164,1.23164,0,1,1,1.23094-1.23234v.0007A1.23238,1.23238,0,0,1,110.84846,43.00382Z"/><circle class="cls-45" cx="100.11965" cy="41.77218" r="0.42217"/><path class="cls-45" d="M110.84846,41.35a.42218.42218,0,1,0,.42217.42219v0A.42225.42225,0,0,0,110.84846,41.35Z"/><path class="cls-45" d="M115.20248,35.04349l-3.81121-.73752-3.50242-2.65733a4.03252,4.03252,0,0,0-2.43714-.81965H97.14186a1.79248,1.79248,0,0,0-1.79263,1.79188v7.90145a.89654.89654,0,0,0,.89666.896h.70482a3.1885,3.1885,0,0,1,6.33777,0h4.39039a3.18847,3.18847,0,0,1,6.33772,0H115.395a.89592.89592,0,0,0,.896-.89583V36.363A1.34376,1.34376,0,0,0,115.20248,35.04349ZM96.522,34.62206a.22393.22393,0,0,1-.22383-.22382V32.62087a.84479.84479,0,0,1,.84365-.84365h4.95132V34.622H96.522Zm10.72956,2.08254H105.996a.16277.16277,0,0,1,0-.32554h1.25563a.16277.16277,0,1,1,.00095.32554h-.001Zm2.76123-2.15885a.11249.11249,0,0,1-.10608.07632h-7.076v-2.8448h2.621a3.10325,3.10325,0,0,1,1.86383.62637l2.658,2.01715a.11243.11243,0,0,1,.03929.125Z"/><text class="cls-46" transform="matrix(0.99972, -0.02377, 0.02377, 0.99972, 123.14042, 52.89954)">女子</text><text class="cls-47" transform="matrix(0.99972, -0.02377, 0.02377, 0.99972, 123.14042, 52.89954)">女子</text><text class="cls-48" transform="matrix(0.99972, -0.02377, 0.02377, 0.99972, 123.14042, 52.89954)">女子</text><text class="cls-48" transform="matrix(0.99972, -0.02377, 0.02377, 0.99972, 123.14042, 52.89954)">女子</text><text class="cls-49" transform="translate(168.72559 54.93094)">ブ<tspan class="cls-50" x="8.34229" y="0">ロ</tspan><tspan class="cls-51" x="16.5957" y="0">グ</tspan></text><text class="cls-52" transform="translate(168.72559 54.93094)">ブ<tspan class="cls-50" x="8.34229" y="0">ロ</tspan><tspan class="cls-51" x="16.5957" y="0">グ</tspan></text><text class="cls-53" transform="translate(168.72559 54.93094)">ブ<tspan class="cls-50" x="8.34229" y="0">ロ</tspan><tspan class="cls-51" x="16.5957" y="0">グ</tspan></text><ellipse class="cls-45" cx="19.58486" cy="13.44671" rx="15.98953" ry="8.76274" transform="matrix(0.9906, -0.13678, 0.13678, 0.9906, -1.65521, 2.80526)"/><polygon class="cls-45" points="35.647 25.755 27.518 15.302 23.653 20.144 35.647 25.755"/><text class="cls-54" transform="translate(9.1177 19.23435) rotate(-7.86174)">JA11</text></svg>