<?xml version="1.0" encoding="utf-8"?>
<!-- Generator: Adobe Illustrator 24.3.0, SVG Export Plug-In . SVG Version: 6.00 Build 0)  -->
<svg version="1.1" id="レイヤー_1" xmlns="http://www.w3.org/2000/svg" xmlns:xlink="http://www.w3.org/1999/xlink" x="0px"
	 y="0px" viewBox="0 0 200 58.9" style="enable-background:new 0 0 200 58.9;" xml:space="preserve">
<style type="text/css">
	.st0{enable-background:new    ;}
	.st1{fill:none;stroke:#FFFFFF;stroke-width:5;stroke-linecap:round;stroke-linejoin:round;}
	.st2{fill:none;stroke:#FF0000;stroke-linecap:round;stroke-linejoin:round;}
	.st3{fill:#F72626;}
	.st4{fill:none;stroke:#D3C11C;stroke-width:2;stroke-linecap:round;stroke-linejoin:round;}
	.st5{fill:#F0E21F;}
	.st6{fill:none;stroke:#FFFFFF;}
	.st7{fill:none;stroke:#D3C11C;stroke-linecap:round;stroke-linejoin:round;}
	.st8{fill:#FF0000;}
	.st9{fill:none;stroke:#FFFFFF;stroke-width:8;stroke-linecap:round;stroke-linejoin:round;}
	.st10{fill:none;stroke:#00156F;stroke-width:3;stroke-linecap:round;stroke-linejoin:round;}
	.st11{fill:#00156F;}
	.st12{fill:none;stroke:#FFFFFF;stroke-width:8;stroke-linecap:round;stroke-linejoin:round;stroke-miterlimit:4;}
	.st13{fill:none;stroke:#00156F;stroke-width:3;stroke-linecap:round;stroke-linejoin:round;stroke-miterlimit:4;}
	.st14{fill:none;stroke:#FFFFFF;stroke-width:3;}
	.st15{fill:none;stroke:#F932EF;stroke-width:2;stroke-linecap:round;stroke-linejoin:round;stroke-miterlimit:4;}
	.st16{fill:#F932EF;}
	.st17{fill:#FFFFFF;}
</style>
<g class="st0">
	<path class="st1" d="M43.3,17.9c-0.1,0-0.2,0-0.2,0c-0.3,0-0.5-0.2-0.5-0.6c0-0.3,0.2-0.4,0.4-0.5c2.3-0.4,3.5-2.1,3.5-4.4v-1.1
		c0-0.3,0.2-0.4,0.6-0.4c0.4,0,0.6,0.2,0.6,0.4v1.2C47.7,15.4,45.9,17.4,43.3,17.9z M49.4,14.6c-0.3,0.1-0.6,0.1-1,0.1
		c-0.2,0-0.5-0.2-0.5-0.6c0-0.3,0.1-0.5,0.4-0.5c2.3-0.2,3.9-1.2,3.9-3.6V9.2c0-0.2-0.1-0.3-0.3-0.3h-8.8c-0.3,0-0.4-0.2-0.4-0.6
		s0.2-0.6,0.4-0.6h9.3c0.7,0,1.1,0.4,1.1,1.1V10C53.4,12.6,51.9,14.2,49.4,14.6z"/>
</g>
<g class="st0">
	<path class="st1" d="M61.8,17.9h-1.3c-0.3,0-0.5-0.2-0.5-0.6s0.2-0.6,0.5-0.6h1.3c1.3,0,1.8-0.4,1.8-2v-4.7c0-0.2-0.1-0.3-0.3-0.3
		h-4.8c0,3.9-1,6.3-3.4,7.8c-0.1,0.1-0.3,0.1-0.4,0.1c-0.3,0-0.6-0.3-0.6-0.7c0-0.2,0.1-0.3,0.4-0.5c2-1.2,2.8-3.3,2.8-6.8h-2.6
		c-0.3,0-0.5-0.2-0.5-0.6c0-0.4,0.2-0.6,0.5-0.6h2.6V7.8c0-0.3,0.2-0.4,0.6-0.4c0.4,0,0.6,0.2,0.6,0.4v0.9h5.3c0.6,0,1,0.4,1,1v5.2
		C64.8,17.3,63.9,17.9,61.8,17.9z"/>
</g>
<g class="st0">
	<path class="st1" d="M75.8,8.4c-0.8,0.2-2.2,0.4-4.3,0.4h-5.3c-0.3,0-0.4-0.2-0.4-0.5s0.2-0.5,0.4-0.5h5.3c1.8,0,3-0.1,4.1-0.4
		c0.1,0,0.2,0,0.2,0c0.2,0,0.4,0.1,0.4,0.6C76.2,8.2,76.1,8.3,75.8,8.4z M76.1,12.3h-1.5v0.4c0,3.2-1.7,5.3-6.4,5.3h-1.4
		c-0.3,0-0.5-0.2-0.5-0.6s0.2-0.6,0.5-0.6h1.5c4.1,0,5.2-1.7,5.2-4.1v-0.4h-7.2c-0.3,0-0.4-0.2-0.4-0.6s0.2-0.6,0.4-0.6h7.2V9.7
		c0-0.3,0.2-0.4,0.6-0.4c0.4,0,0.6,0.2,0.6,0.4v1.5h1.5c0.3,0,0.4,0.2,0.4,0.6S76.4,12.3,76.1,12.3z"/>
</g>
<g class="st0">
	<path class="st2" d="M43.3,17.9c-0.1,0-0.2,0-0.2,0c-0.3,0-0.5-0.2-0.5-0.6c0-0.3,0.2-0.4,0.4-0.5c2.3-0.4,3.5-2.1,3.5-4.4v-1.1
		c0-0.3,0.2-0.4,0.6-0.4c0.4,0,0.6,0.2,0.6,0.4v1.2C47.7,15.4,45.9,17.4,43.3,17.9z M49.4,14.6c-0.3,0.1-0.6,0.1-1,0.1
		c-0.2,0-0.5-0.2-0.5-0.6c0-0.3,0.1-0.5,0.4-0.5c2.3-0.2,3.9-1.2,3.9-3.6V9.2c0-0.2-0.1-0.3-0.3-0.3h-8.8c-0.3,0-0.4-0.2-0.4-0.6
		s0.2-0.6,0.4-0.6h9.3c0.7,0,1.1,0.4,1.1,1.1V10C53.4,12.6,51.9,14.2,49.4,14.6z"/>
</g>
<g class="st0">
	<path class="st2" d="M61.8,17.9h-1.3c-0.3,0-0.5-0.2-0.5-0.6s0.2-0.6,0.5-0.6h1.3c1.3,0,1.8-0.4,1.8-2v-4.7c0-0.2-0.1-0.3-0.3-0.3
		h-4.8c0,3.9-1,6.3-3.4,7.8c-0.1,0.1-0.3,0.1-0.4,0.1c-0.3,0-0.6-0.3-0.6-0.7c0-0.2,0.1-0.3,0.4-0.5c2-1.2,2.8-3.3,2.8-6.8h-2.6
		c-0.3,0-0.5-0.2-0.5-0.6c0-0.4,0.2-0.6,0.5-0.6h2.6V7.8c0-0.3,0.2-0.4,0.6-0.4c0.4,0,0.6,0.2,0.6,0.4v0.9h5.3c0.6,0,1,0.4,1,1v5.2
		C64.8,17.3,63.9,17.9,61.8,17.9z"/>
</g>
<g class="st0">
	<path class="st2" d="M75.8,8.4c-0.8,0.2-2.2,0.4-4.3,0.4h-5.3c-0.3,0-0.4-0.2-0.4-0.5s0.2-0.5,0.4-0.5h5.3c1.8,0,3-0.1,4.1-0.4
		c0.1,0,0.2,0,0.2,0c0.2,0,0.4,0.1,0.4,0.6C76.2,8.2,76.1,8.3,75.8,8.4z M76.1,12.3h-1.5v0.4c0,3.2-1.7,5.3-6.4,5.3h-1.4
		c-0.3,0-0.5-0.2-0.5-0.6s0.2-0.6,0.5-0.6h1.5c4.1,0,5.2-1.7,5.2-4.1v-0.4h-7.2c-0.3,0-0.4-0.2-0.4-0.6s0.2-0.6,0.4-0.6h7.2V9.7
		c0-0.3,0.2-0.4,0.6-0.4c0.4,0,0.6,0.2,0.6,0.4v1.5h1.5c0.3,0,0.4,0.2,0.4,0.6S76.4,12.3,76.1,12.3z"/>
</g>
<g class="st0">
	<path class="st3" d="M43.3,17.9c-0.1,0-0.2,0-0.2,0c-0.3,0-0.5-0.2-0.5-0.6c0-0.3,0.2-0.4,0.4-0.5c2.3-0.4,3.5-2.1,3.5-4.4v-1.1
		c0-0.3,0.2-0.4,0.6-0.4c0.4,0,0.6,0.2,0.6,0.4v1.2C47.7,15.4,45.9,17.4,43.3,17.9z M49.4,14.6c-0.3,0.1-0.6,0.1-1,0.1
		c-0.2,0-0.5-0.2-0.5-0.6c0-0.3,0.1-0.5,0.4-0.5c2.3-0.2,3.9-1.2,3.9-3.6V9.2c0-0.2-0.1-0.3-0.3-0.3h-8.8c-0.3,0-0.4-0.2-0.4-0.6
		s0.2-0.6,0.4-0.6h9.3c0.7,0,1.1,0.4,1.1,1.1V10C53.4,12.6,51.9,14.2,49.4,14.6z"/>
</g>
<g class="st0">
	<path class="st3" d="M61.8,17.9h-1.3c-0.3,0-0.5-0.2-0.5-0.6s0.2-0.6,0.5-0.6h1.3c1.3,0,1.8-0.4,1.8-2v-4.7c0-0.2-0.1-0.3-0.3-0.3
		h-4.8c0,3.9-1,6.3-3.4,7.8c-0.1,0.1-0.3,0.1-0.4,0.1c-0.3,0-0.6-0.3-0.6-0.7c0-0.2,0.1-0.3,0.4-0.5c2-1.2,2.8-3.3,2.8-6.8h-2.6
		c-0.3,0-0.5-0.2-0.5-0.6c0-0.4,0.2-0.6,0.5-0.6h2.6V7.8c0-0.3,0.2-0.4,0.6-0.4c0.4,0,0.6,0.2,0.6,0.4v0.9h5.3c0.6,0,1,0.4,1,1v5.2
		C64.8,17.3,63.9,17.9,61.8,17.9z"/>
</g>
<g class="st0">
	<path class="st3" d="M75.8,8.4c-0.8,0.2-2.2,0.4-4.3,0.4h-5.3c-0.3,0-0.4-0.2-0.4-0.5s0.2-0.5,0.4-0.5h5.3c1.8,0,3-0.1,4.1-0.4
		c0.1,0,0.2,0,0.2,0c0.2,0,0.4,0.1,0.4,0.6C76.2,8.2,76.1,8.3,75.8,8.4z M76.1,12.3h-1.5v0.4c0,3.2-1.7,5.3-6.4,5.3h-1.4
		c-0.3,0-0.5-0.2-0.5-0.6s0.2-0.6,0.5-0.6h1.5c4.1,0,5.2-1.7,5.2-4.1v-0.4h-7.2c-0.3,0-0.4-0.2-0.4-0.6s0.2-0.6,0.4-0.6h7.2V9.7
		c0-0.3,0.2-0.4,0.6-0.4c0.4,0,0.6,0.2,0.6,0.4v1.5h1.5c0.3,0,0.4,0.2,0.4,0.6S76.4,12.3,76.1,12.3z"/>
</g>
<g class="st0">
	<path class="st1" d="M86,17.7h-4.9c-0.1,0-0.2-0.1-0.2-0.3c0-0.2,0.1-0.3,0.2-0.3h2.1v-3.7h-2c-0.1,0-0.2-0.1-0.2-0.3
		c0-0.2,0.1-0.3,0.2-0.3h4.6c0.1,0,0.2,0.1,0.2,0.3c0,0.2-0.1,0.3-0.2,0.3h-2v3.7H86c0.1,0,0.2,0.1,0.2,0.3
		C86.2,17.6,86.1,17.7,86,17.7z"/>
</g>
<g class="st0">
	<path class="st2" d="M86,17.7h-4.9c-0.1,0-0.2-0.1-0.2-0.3c0-0.2,0.1-0.3,0.2-0.3h2.1v-3.7h-2c-0.1,0-0.2-0.1-0.2-0.3
		c0-0.2,0.1-0.3,0.2-0.3h4.6c0.1,0,0.2,0.1,0.2,0.3c0,0.2-0.1,0.3-0.2,0.3h-2v3.7H86c0.1,0,0.2,0.1,0.2,0.3
		C86.2,17.6,86.1,17.7,86,17.7z"/>
</g>
<g class="st0">
	<path class="st3" d="M86,17.7h-4.9c-0.1,0-0.2-0.1-0.2-0.3c0-0.2,0.1-0.3,0.2-0.3h2.1v-3.7h-2c-0.1,0-0.2-0.1-0.2-0.3
		c0-0.2,0.1-0.3,0.2-0.3h4.6c0.1,0,0.2,0.1,0.2,0.3c0,0.2-0.1,0.3-0.2,0.3h-2v3.7H86c0.1,0,0.2,0.1,0.2,0.3
		C86.2,17.6,86.1,17.7,86,17.7z"/>
</g>
<g>
	<g class="st0">
		<path class="st1" d="M90.9,13.8c-0.4,0-0.6-0.2-0.6-0.4V7.8c0-0.3,0.2-0.5,0.6-0.5c0.4,0,0.6,0.2,0.6,0.5v5.5
			C91.5,13.6,91.3,13.8,90.9,13.8z M93.6,18H92c-0.3,0-0.5-0.2-0.5-0.6s0.2-0.6,0.5-0.6h1.5c4.3,0,5.6-1.9,5.6-5V7.8
			c0-0.3,0.2-0.5,0.6-0.5s0.6,0.2,0.6,0.5V12C100.3,15.8,98.4,18,93.6,18z"/>
	</g>
	<g class="st0">
		<path class="st1" d="M109.4,13.5h-6.5c-0.2,0-0.3-0.2-0.3-0.4c0-0.2,0.2-0.4,0.3-0.4h6.5c0.2,0,0.3,0.2,0.3,0.4
			C109.7,13.4,109.5,13.5,109.4,13.5z"/>
	</g>
	<g class="st0">
		<path class="st1" d="M122.1,10.2h-1.6v1.1c0,4.5-2.1,6.6-6.9,6.6h-1.2c-0.3,0-0.5-0.2-0.5-0.6c0-0.3,0.2-0.5,0.4-0.5h1.2
			c4.1,0,5.7-1.7,5.7-5.6v-1h-7.2c-0.3,0-0.5-0.2-0.5-0.6s0.2-0.6,0.5-0.6h7.2V7.8c0-0.3,0.2-0.4,0.6-0.4c0.4,0,0.6,0.1,0.6,0.4v1.3
			h1.6c0.3,0,0.5,0.2,0.5,0.6S122.3,10.2,122.1,10.2z"/>
	</g>
</g>
<g>
	<g class="st0">
		<path class="st2" d="M90.9,13.8c-0.4,0-0.6-0.2-0.6-0.4V7.8c0-0.3,0.2-0.5,0.6-0.5c0.4,0,0.6,0.2,0.6,0.5v5.5
			C91.5,13.6,91.3,13.8,90.9,13.8z M93.6,18H92c-0.3,0-0.5-0.2-0.5-0.6s0.2-0.6,0.5-0.6h1.5c4.3,0,5.6-1.9,5.6-5V7.8
			c0-0.3,0.2-0.5,0.6-0.5s0.6,0.2,0.6,0.5V12C100.3,15.8,98.4,18,93.6,18z"/>
	</g>
	<g class="st0">
		<path class="st2" d="M109.4,13.5h-6.5c-0.2,0-0.3-0.2-0.3-0.4c0-0.2,0.2-0.4,0.3-0.4h6.5c0.2,0,0.3,0.2,0.3,0.4
			C109.7,13.4,109.5,13.5,109.4,13.5z"/>
	</g>
	<g class="st0">
		<path class="st2" d="M122.1,10.2h-1.6v1.1c0,4.5-2.1,6.6-6.9,6.6h-1.2c-0.3,0-0.5-0.2-0.5-0.6c0-0.3,0.2-0.5,0.4-0.5h1.2
			c4.1,0,5.7-1.7,5.7-5.6v-1h-7.2c-0.3,0-0.5-0.2-0.5-0.6s0.2-0.6,0.5-0.6h7.2V7.8c0-0.3,0.2-0.4,0.6-0.4c0.4,0,0.6,0.1,0.6,0.4v1.3
			h1.6c0.3,0,0.5,0.2,0.5,0.6S122.3,10.2,122.1,10.2z"/>
	</g>
</g>
<g>
	<g class="st0">
		<path class="st3" d="M90.9,13.8c-0.4,0-0.6-0.2-0.6-0.4V7.8c0-0.3,0.2-0.5,0.6-0.5c0.4,0,0.6,0.2,0.6,0.5v5.5
			C91.5,13.6,91.3,13.8,90.9,13.8z M93.6,18H92c-0.3,0-0.5-0.2-0.5-0.6s0.2-0.6,0.5-0.6h1.5c4.3,0,5.6-1.9,5.6-5V7.8
			c0-0.3,0.2-0.5,0.6-0.5s0.6,0.2,0.6,0.5V12C100.3,15.8,98.4,18,93.6,18z"/>
	</g>
	<g class="st0">
		<path class="st3" d="M109.4,13.5h-6.5c-0.2,0-0.3-0.2-0.3-0.4c0-0.2,0.2-0.4,0.3-0.4h6.5c0.2,0,0.3,0.2,0.3,0.4
			C109.7,13.4,109.5,13.5,109.4,13.5z"/>
	</g>
	<g class="st0">
		<path class="st3" d="M122.1,10.2h-1.6v1.1c0,4.5-2.1,6.6-6.9,6.6h-1.2c-0.3,0-0.5-0.2-0.5-0.6c0-0.3,0.2-0.5,0.4-0.5h1.2
			c4.1,0,5.7-1.7,5.7-5.6v-1h-7.2c-0.3,0-0.5-0.2-0.5-0.6s0.2-0.6,0.5-0.6h7.2V7.8c0-0.3,0.2-0.4,0.6-0.4c0.4,0,0.6,0.1,0.6,0.4v1.3
			h1.6c0.3,0,0.5,0.2,0.5,0.6S122.3,10.2,122.1,10.2z"/>
	</g>
</g>
<g>
	<g class="st0">
		<path class="st1" d="M133.8,16.6h-1v1.3c0,0.3-0.2,0.5-0.6,0.5c-0.4,0-0.6-0.2-0.6-0.5v-1.3h-5.7c-0.4,0-0.7-0.2-0.7-0.6
			s0.1-0.7,0.3-1l5-6.4c0.2-0.3,0.5-0.5,1-0.5h0.6c0.5,0,0.6,0.3,0.6,0.6v6.9h1c0.3,0,0.5,0.2,0.5,0.5S134.1,16.6,133.8,16.6z
			 M131.6,9.1c0-0.1,0-0.1-0.1-0.1s-0.1,0-0.1,0.1l-4.8,6.2c-0.1,0.1-0.1,0.1-0.1,0.1c0,0.1,0.1,0.1,0.2,0.1h5V9.1z"/>
	</g>
	<g class="st0">
		<path class="st1" d="M147.9,18.5h-9.4c-0.5,0-0.9-0.4-0.9-0.9v-6.7h-0.5c-0.3,0-0.4-0.2-0.4-0.5c0-0.3,0.2-0.5,0.4-0.5h0.5V7.5
			c0-0.2,0.2-0.4,0.5-0.4c0.3,0,0.5,0.2,0.5,0.4v2.3h3V7.6c0-0.3,0.2-0.5,0.5-0.5c0.3,0,0.5,0.2,0.5,0.5v2.3h3.7V7.6
			c0-0.3,0.2-0.5,0.5-0.5s0.5,0.2,0.5,0.5v2.3h0.5c0.3,0,0.4,0.2,0.4,0.5c0,0.3-0.2,0.5-0.4,0.5h-0.5v3.5c0,0.5-0.4,0.9-0.9,0.9
			h-3.9c-0.5,0-0.9-0.4-0.9-0.9v-3.5h-3v6.4c0,0.2,0.1,0.3,0.3,0.3h9c0.3,0,0.4,0.2,0.4,0.5C148.4,18.3,148.2,18.5,147.9,18.5z
			 M146.4,10.9h-3.7V14c0,0.2,0.1,0.3,0.3,0.3h3.1c0.2,0,0.3-0.1,0.3-0.3V10.9z"/>
	</g>
</g>
<g>
	<g class="st0">
		<path class="st4" d="M133.8,16.6h-1v1.3c0,0.3-0.2,0.5-0.6,0.5c-0.4,0-0.6-0.2-0.6-0.5v-1.3h-5.7c-0.4,0-0.7-0.2-0.7-0.6
			s0.1-0.7,0.3-1l5-6.4c0.2-0.3,0.5-0.5,1-0.5h0.6c0.5,0,0.6,0.3,0.6,0.6v6.9h1c0.3,0,0.5,0.2,0.5,0.5S134.1,16.6,133.8,16.6z
			 M131.6,9.1c0-0.1,0-0.1-0.1-0.1s-0.1,0-0.1,0.1l-4.8,6.2c-0.1,0.1-0.1,0.1-0.1,0.1c0,0.1,0.1,0.1,0.2,0.1h5V9.1z"/>
	</g>
	<g class="st0">
		<path class="st4" d="M147.9,18.5h-9.4c-0.5,0-0.9-0.4-0.9-0.9v-6.7h-0.5c-0.3,0-0.4-0.2-0.4-0.5c0-0.3,0.2-0.5,0.4-0.5h0.5V7.5
			c0-0.2,0.2-0.4,0.5-0.4c0.3,0,0.5,0.2,0.5,0.4v2.3h3V7.6c0-0.3,0.2-0.5,0.5-0.5c0.3,0,0.5,0.2,0.5,0.5v2.3h3.7V7.6
			c0-0.3,0.2-0.5,0.5-0.5s0.5,0.2,0.5,0.5v2.3h0.5c0.3,0,0.4,0.2,0.4,0.5c0,0.3-0.2,0.5-0.4,0.5h-0.5v3.5c0,0.5-0.4,0.9-0.9,0.9
			h-3.9c-0.5,0-0.9-0.4-0.9-0.9v-3.5h-3v6.4c0,0.2,0.1,0.3,0.3,0.3h9c0.3,0,0.4,0.2,0.4,0.5C148.4,18.3,148.2,18.5,147.9,18.5z
			 M146.4,10.9h-3.7V14c0,0.2,0.1,0.3,0.3,0.3h3.1c0.2,0,0.3-0.1,0.3-0.3V10.9z"/>
	</g>
</g>
<g>
	<g class="st0">
		<path class="st5" d="M133.8,16.6h-1v1.3c0,0.3-0.2,0.5-0.6,0.5c-0.4,0-0.6-0.2-0.6-0.5v-1.3h-5.7c-0.4,0-0.7-0.2-0.7-0.6
			s0.1-0.7,0.3-1l5-6.4c0.2-0.3,0.5-0.5,1-0.5h0.6c0.5,0,0.6,0.3,0.6,0.6v6.9h1c0.3,0,0.5,0.2,0.5,0.5S134.1,16.6,133.8,16.6z
			 M131.6,9.1c0-0.1,0-0.1-0.1-0.1s-0.1,0-0.1,0.1l-4.8,6.2c-0.1,0.1-0.1,0.1-0.1,0.1c0,0.1,0.1,0.1,0.2,0.1h5V9.1z"/>
	</g>
	<g class="st0">
		<path class="st5" d="M147.9,18.5h-9.4c-0.5,0-0.9-0.4-0.9-0.9v-6.7h-0.5c-0.3,0-0.4-0.2-0.4-0.5c0-0.3,0.2-0.5,0.4-0.5h0.5V7.5
			c0-0.2,0.2-0.4,0.5-0.4c0.3,0,0.5,0.2,0.5,0.4v2.3h3V7.6c0-0.3,0.2-0.5,0.5-0.5c0.3,0,0.5,0.2,0.5,0.5v2.3h3.7V7.6
			c0-0.3,0.2-0.5,0.5-0.5s0.5,0.2,0.5,0.5v2.3h0.5c0.3,0,0.4,0.2,0.4,0.5c0,0.3-0.2,0.5-0.4,0.5h-0.5v3.5c0,0.5-0.4,0.9-0.9,0.9
			h-3.9c-0.5,0-0.9-0.4-0.9-0.9v-3.5h-3v6.4c0,0.2,0.1,0.3,0.3,0.3h9c0.3,0,0.4,0.2,0.4,0.5C148.4,18.3,148.2,18.5,147.9,18.5z
			 M146.4,10.9h-3.7V14c0,0.2,0.1,0.3,0.3,0.3h3.1c0.2,0,0.3-0.1,0.3-0.3V10.9z"/>
	</g>
</g>
<path class="st6" d="M155.8,6c0.2-0.4,0-0.8-0.4-1s-0.8,0-1,0.4c-0.1,0.2-0.1,0.4,0,0.6c-0.7,0.7-1.8,0.8-2.5,0.2
	c-0.4-0.6-0.5-1.4-0.2-2.1c0.5,0,0.8-0.5,0.8-1s-0.5-0.8-1-0.8c-0.5,0-0.8,0.5-0.8,1c0,0.2,0.1,0.3,0.2,0.5
	c-0.3,0.6-0.9,1.3-1.6,1.3c-1-0.1-1.7-0.9-1.7-1.9c0.4-0.2,0.6-0.6,0.4-1c-0.2-0.4-0.6-0.6-1-0.4s-0.6,0.6-0.4,1
	c0.1,0.2,0.2,0.3,0.3,0.4l-0.4,3.3l6.5,2.6l2-2.7C155.2,6.5,155.6,6.3,155.8,6z"/>
<path class="st6" d="M152.7,10.5c-0.1,0.3-0.5,0.4-0.7,0.3c0,0,0,0,0,0l0,0l-6.2-2.5c-0.3-0.1-0.4-0.5-0.3-0.7v0l0,0
	c0.1-0.3,0.5-0.4,0.7-0.3l0,0l6.2,2.5C152.7,9.8,152.8,10.2,152.7,10.5L152.7,10.5L152.7,10.5z"/>
<path class="st5" d="M155.8,6c0.2-0.4,0-0.8-0.4-1s-0.8,0-1,0.4c-0.1,0.2-0.1,0.4,0,0.6c-0.7,0.7-1.8,0.8-2.5,0.2
	c-0.4-0.6-0.5-1.4-0.2-2.1c0.5,0,0.8-0.5,0.8-1s-0.5-0.8-1-0.8c-0.5,0-0.8,0.5-0.8,1c0,0.2,0.1,0.3,0.2,0.5
	c-0.3,0.6-0.9,1.3-1.6,1.3c-1-0.1-1.7-0.9-1.7-1.9c0.4-0.2,0.6-0.6,0.4-1c-0.2-0.4-0.6-0.6-1-0.4s-0.6,0.6-0.4,1
	c0.1,0.2,0.2,0.3,0.3,0.4l-0.4,3.3l6.5,2.6l2-2.7C155.2,6.5,155.6,6.3,155.8,6z"/>
<path class="st5" d="M152.7,10.5c-0.1,0.3-0.5,0.4-0.7,0.3c0,0,0,0,0,0l0,0l-6.2-2.5c-0.3-0.1-0.4-0.5-0.3-0.7v0l0,0
	c0.1-0.3,0.5-0.4,0.7-0.3l0,0l6.2,2.5C152.7,9.8,152.8,10.2,152.7,10.5L152.7,10.5L152.7,10.5z"/>
<path class="st7" d="M155.8,6c0.2-0.4,0-0.8-0.4-1s-0.8,0-1,0.4c-0.1,0.2-0.1,0.4,0,0.6c-0.7,0.7-1.8,0.8-2.5,0.2
	c-0.4-0.6-0.5-1.4-0.2-2.1c0.5,0,0.8-0.5,0.8-1s-0.5-0.8-1-0.8c-0.5,0-0.8,0.5-0.8,1c0,0.2,0.1,0.3,0.2,0.5
	c-0.3,0.6-0.9,1.3-1.6,1.3c-1-0.1-1.7-0.9-1.7-1.9c0.4-0.2,0.6-0.6,0.4-1c-0.2-0.4-0.6-0.6-1-0.4s-0.6,0.6-0.4,1
	c0.1,0.2,0.2,0.3,0.3,0.4l-0.4,3.3l6.5,2.6l2-2.7C155.2,6.5,155.6,6.3,155.8,6z"/>
<path class="st7" d="M152.7,10.5c-0.1,0.3-0.5,0.4-0.7,0.3c0,0,0,0,0,0l0,0l-6.2-2.5c-0.3-0.1-0.4-0.5-0.3-0.7v0l0,0
	c0.1-0.3,0.5-0.4,0.7-0.3l0,0l6.2,2.5C152.7,9.8,152.8,10.2,152.7,10.5L152.7,10.5L152.7,10.5z"/>
<path class="st6" d="M81.8,7.2L81.5,7c-0.3-0.2-0.7,0-0.8,0.3L80,8.4c-0.2,0.3-0.1,0.7,0.2,0.9l0.3,0.2c0.3,0.2,0.7,0,0.8-0.3L82,8
	C82.2,7.8,82.1,7.4,81.8,7.2z"/>
<path class="st6" d="M80.3,6.6l-0.7-1.3C79.5,5.1,79.3,5,79.1,5c-0.2,0-0.4,0.2-0.5,0.4l-0.6,1.1l-0.6,1.1c-0.1,0.2-0.1,0.4,0,0.7
	c0.1,0.2,0.3,0.3,0.5,0.3l1.4-0.1c0.2,0,0.4-0.2,0.5-0.4l0.2-0.5l0.2-0.5C80.4,7,80.4,6.8,80.3,6.6z"/>
<path class="st6" d="M84.8,8.1c-0.1-0.2-0.3-0.3-0.5-0.3l-1.4,0.1c-0.2,0-0.4,0.2-0.5,0.4L82,8.7l-0.2,0.5c-0.1,0.2-0.1,0.4,0,0.6
	l0.7,1.3c0.1,0.2,0.3,0.3,0.5,0.3c0.2,0,0.4-0.2,0.5-0.4l0.6-1.1l0.6-1.1C84.9,8.5,84.9,8.3,84.8,8.1z"/>
<path class="st8" d="M81.8,7.2L81.5,7c-0.3-0.2-0.7,0-0.8,0.3L80,8.4c-0.2,0.3-0.1,0.7,0.2,0.9l0.3,0.2c0.3,0.2,0.7,0,0.8-0.3L82,8
	C82.2,7.8,82.1,7.4,81.8,7.2z"/>
<path class="st8" d="M80.3,6.6l-0.7-1.3C79.5,5.1,79.3,5,79.1,5c-0.2,0-0.4,0.2-0.5,0.4l-0.6,1.1l-0.6,1.1c-0.1,0.2-0.1,0.4,0,0.7
	c0.1,0.2,0.3,0.3,0.5,0.3l1.4-0.1c0.2,0,0.4-0.2,0.5-0.4l0.2-0.5l0.2-0.5C80.4,7,80.4,6.8,80.3,6.6z"/>
<path class="st8" d="M84.8,8.1c-0.1-0.2-0.3-0.3-0.5-0.3l-1.4,0.1c-0.2,0-0.4,0.2-0.5,0.4L82,8.7l-0.2,0.5c-0.1,0.2-0.1,0.4,0,0.6
	l0.7,1.3c0.1,0.2,0.3,0.3,0.5,0.3c0.2,0,0.4-0.2,0.5-0.4l0.6-1.1l0.6-1.1C84.9,8.5,84.9,8.3,84.8,8.1z"/>
<g class="st0">
	<path class="st1" d="M156.1,17.9C156.1,17.9,156.1,17.9,156.1,17.9c-0.3,0-0.4-0.1-0.4-0.4c0-0.2,0.1-0.3,0.2-0.3
		c1.3-0.3,1.9-0.9,1.9-2.5c0-1.5-0.8-2.6-2.4-2.6c-2,0-2.7,1.2-2.7,2.9c0,1.1,0.4,1.9,1,1.9c1.1,0,1.3-3.4,1.4-4.2
		c0-0.1,0.1-0.2,0.4-0.2c0.2,0,0.3,0.1,0.3,0.2v0.1c0,3.3-0.9,4.9-2.1,4.9c-1,0-1.6-1-1.6-2.7c0-2,1-3.6,3.4-3.6
		c2,0,3.1,1.3,3.1,3.2C158.6,16.6,157.8,17.6,156.1,17.9z"/>
</g>
<g class="st0">
	<path class="st2" d="M156.1,17.9C156.1,17.9,156.1,17.9,156.1,17.9c-0.3,0-0.4-0.1-0.4-0.4c0-0.2,0.1-0.3,0.2-0.3
		c1.3-0.3,1.9-0.9,1.9-2.5c0-1.5-0.8-2.6-2.4-2.6c-2,0-2.7,1.2-2.7,2.9c0,1.1,0.4,1.9,1,1.9c1.1,0,1.3-3.4,1.4-4.2
		c0-0.1,0.1-0.2,0.4-0.2c0.2,0,0.3,0.1,0.3,0.2v0.1c0,3.3-0.9,4.9-2.1,4.9c-1,0-1.6-1-1.6-2.7c0-2,1-3.6,3.4-3.6
		c2,0,3.1,1.3,3.1,3.2C158.6,16.6,157.8,17.6,156.1,17.9z"/>
</g>
<g class="st0">
	<path class="st3" d="M156.1,17.9C156.1,17.9,156.1,17.9,156.1,17.9c-0.3,0-0.4-0.1-0.4-0.4c0-0.2,0.1-0.3,0.2-0.3
		c1.3-0.3,1.9-0.9,1.9-2.5c0-1.5-0.8-2.6-2.4-2.6c-2,0-2.7,1.2-2.7,2.9c0,1.1,0.4,1.9,1,1.9c1.1,0,1.3-3.4,1.4-4.2
		c0-0.1,0.1-0.2,0.4-0.2c0.2,0,0.3,0.1,0.3,0.2v0.1c0,3.3-0.9,4.9-2.1,4.9c-1,0-1.6-1-1.6-2.7c0-2,1-3.6,3.4-3.6
		c2,0,3.1,1.3,3.1,3.2C158.6,16.6,157.8,17.6,156.1,17.9z"/>
</g>
<g class="st0">
	<path class="st9" d="M18.1,34.2l-9.3,1.7c-0.5,0.1-0.9-0.2-1.1-0.9c-0.1-0.8,0.2-1.2,0.7-1.3l9.3-1.7c0.5-0.1,0.9,0.2,1.1,0.9
		C18.9,33.7,18.6,34.1,18.1,34.2z M19.5,41.8l-9.3,1.7c-0.5,0.1-0.9-0.2-1.1-0.9c-0.1-0.8,0.2-1.2,0.7-1.3l9.3-1.7
		c0.5-0.1,0.9,0.2,1.1,0.9C20.3,41.3,20,41.7,19.5,41.8z M17.9,53.5l-6.3,1.1c-0.4,0.1-1-0.3-1.1-1c-0.1-0.7,0.2-1.3,0.7-1.4
		l6.5-1.2c10-1.8,11-8,9.6-15.8l-0.1-0.5c-0.1-0.4,0.2-0.9,1-1c0.7-0.1,1.2,0.2,1.3,0.7l0.1,0.6C31.2,44,30,51.4,17.9,53.5z
		 M26.8,33.1c-0.5,0.1-0.7-0.1-0.8-0.6l-0.5-3c-0.1-0.4,0.1-0.7,0.6-0.8c0.5-0.1,0.8,0.1,0.9,0.6l0.5,3C27.5,32.7,27.4,33,26.8,33.1
		z M29.6,32.6c-0.5,0.1-0.8-0.1-0.9-0.5l-0.5-3c-0.1-0.4,0.1-0.7,0.6-0.8c0.5-0.1,0.8,0.1,0.9,0.6l0.5,3
		C30.3,32.2,30.1,32.5,29.6,32.6z"/>
</g>
<g class="st0">
	<path class="st10" d="M18.1,34.2l-9.3,1.7c-0.5,0.1-0.9-0.2-1.1-0.9c-0.1-0.8,0.2-1.2,0.7-1.3l9.3-1.7c0.5-0.1,0.9,0.2,1.1,0.9
		C18.9,33.7,18.6,34.1,18.1,34.2z M19.5,41.8l-9.3,1.7c-0.5,0.1-0.9-0.2-1.1-0.9c-0.1-0.8,0.2-1.2,0.7-1.3l9.3-1.7
		c0.5-0.1,0.9,0.2,1.1,0.9C20.3,41.3,20,41.7,19.5,41.8z M17.9,53.5l-6.3,1.1c-0.4,0.1-1-0.3-1.1-1c-0.1-0.7,0.2-1.3,0.7-1.4
		l6.5-1.2c10-1.8,11-8,9.6-15.8l-0.1-0.5c-0.1-0.4,0.2-0.9,1-1c0.7-0.1,1.2,0.2,1.3,0.7l0.1,0.6C31.2,44,30,51.4,17.9,53.5z
		 M26.8,33.1c-0.5,0.1-0.7-0.1-0.8-0.6l-0.5-3c-0.1-0.4,0.1-0.7,0.6-0.8c0.5-0.1,0.8,0.1,0.9,0.6l0.5,3C27.5,32.7,27.4,33,26.8,33.1
		z M29.6,32.6c-0.5,0.1-0.8-0.1-0.9-0.5l-0.5-3c-0.1-0.4,0.1-0.7,0.6-0.8c0.5-0.1,0.8,0.1,0.9,0.6l0.5,3
		C30.3,32.2,30.1,32.5,29.6,32.6z"/>
</g>
<g class="st0">
	<path class="st11" d="M18.1,34.2l-9.3,1.7c-0.5,0.1-0.9-0.2-1.1-0.9c-0.1-0.8,0.2-1.2,0.7-1.3l9.3-1.7c0.5-0.1,0.9,0.2,1.1,0.9
		C18.9,33.7,18.6,34.1,18.1,34.2z M19.5,41.8l-9.3,1.7c-0.5,0.1-0.9-0.2-1.1-0.9c-0.1-0.8,0.2-1.2,0.7-1.3l9.3-1.7
		c0.5-0.1,0.9,0.2,1.1,0.9C20.3,41.3,20,41.7,19.5,41.8z M17.9,53.5l-6.3,1.1c-0.4,0.1-1-0.3-1.1-1c-0.1-0.7,0.2-1.3,0.7-1.4
		l6.5-1.2c10-1.8,11-8,9.6-15.8l-0.1-0.5c-0.1-0.4,0.2-0.9,1-1c0.7-0.1,1.2,0.2,1.3,0.7l0.1,0.6C31.2,44,30,51.4,17.9,53.5z
		 M26.8,33.1c-0.5,0.1-0.7-0.1-0.8-0.6l-0.5-3c-0.1-0.4,0.1-0.7,0.6-0.8c0.5-0.1,0.8,0.1,0.9,0.6l0.5,3C27.5,32.7,27.4,33,26.8,33.1
		z M29.6,32.6c-0.5,0.1-0.8-0.1-0.9-0.5l-0.5-3c-0.1-0.4,0.1-0.7,0.6-0.8c0.5-0.1,0.8,0.1,0.9,0.6l0.5,3
		C30.3,32.2,30.1,32.5,29.6,32.6z"/>
</g>
<g class="st0">
	<path class="st12" d="M110.6,50.1l-19.4,0c-0.5,0-1-0.5-1-1.1c0-0.7,0.5-1.2,1-1.2l19.4,0c0.5,0,1,0.5,1,1.2
		C111.6,49.6,111,50.1,110.6,50.1z"/>
</g>
<g class="st0">
	<path class="st13" d="M110.6,50.1l-19.4,0c-0.5,0-1-0.5-1-1.1c0-0.7,0.5-1.2,1-1.2l19.4,0c0.5,0,1,0.5,1,1.2
		C111.6,49.6,111,50.1,110.6,50.1z"/>
</g>
<g class="st0">
	<path class="st11" d="M110.6,50.1l-19.4,0c-0.5,0-1-0.5-1-1.1c0-0.7,0.5-1.2,1-1.2l19.4,0c0.5,0,1,0.5,1,1.2
		C111.6,49.6,111,50.1,110.6,50.1z"/>
</g>
<g class="st0">
	<path class="st9" d="M82.7,34.4l-18.5,2.6c-0.5,0.1-1-0.2-1.1-1.1c-0.1-0.8,0.3-1.2,0.8-1.3L82.3,32c0.5-0.1,1,0.2,1.1,1.1
		C83.5,33.9,83.2,34.3,82.7,34.4z M86.1,52l-20.5,2.8c-0.6,0.1-1-0.2-1.1-1s0.2-1.2,0.8-1.3l20.5-2.8c0.5-0.1,1,0.2,1.1,1.1
		C87,51.6,86.6,52,86.1,52z"/>
</g>
<g class="st0">
	<path class="st10" d="M82.7,34.4l-18.5,2.6c-0.5,0.1-1-0.2-1.1-1.1c-0.1-0.8,0.3-1.2,0.8-1.3L82.3,32c0.5-0.1,1,0.2,1.1,1.1
		C83.5,33.9,83.2,34.3,82.7,34.4z M86.1,52l-20.5,2.8c-0.6,0.1-1-0.2-1.1-1s0.2-1.2,0.8-1.3l20.5-2.8c0.5-0.1,1,0.2,1.1,1.1
		C87,51.6,86.6,52,86.1,52z"/>
</g>
<g class="st0">
	<path class="st11" d="M82.7,34.4l-18.5,2.6c-0.5,0.1-1-0.2-1.1-1.1c-0.1-0.8,0.3-1.2,0.8-1.3L82.3,32c0.5-0.1,1,0.2,1.1,1.1
		C83.5,33.9,83.2,34.3,82.7,34.4z M86.1,52l-20.5,2.8c-0.6,0.1-1-0.2-1.1-1s0.2-1.2,0.8-1.3l20.5-2.8c0.5-0.1,1,0.2,1.1,1.1
		C87,51.6,86.6,52,86.1,52z"/>
</g>
<g class="st0">
	<path class="st9" d="M54.5,53.6c-0.7-0.1-0.8-0.3-0.9-1l-0.1-1.7c-2.8,0.6-6.9,0.3-10.9-0.5l-7.4-1.5c-1.3-0.3-1.7-1-1.4-2.1
		c0.1-0.4,0.3-0.8,0.6-1.2c2.5-3.5,5-9,7.6-16.7c0.2-0.5,0.5-0.7,1.3-0.6c0.9,0.2,1.3,0.6,1.2,1.1c0,0.1-0.1,0.2-0.1,0.2
		c-2.7,8.2-5.1,13.3-7.5,16.6c-0.1,0.1-0.2,0.3-0.2,0.5c0,0.1,0,0.2,0.4,0.3l6.3,1.2c4.6,0.9,7.8,1,10.1,0.4L52.8,35
		c0-0.1,0-0.2,0-0.2c0.1-0.5,0.6-0.7,1.4-0.6c0.7,0.1,0.9,0.4,0.9,1l0.9,17.6c0,0.1,0,0.2,0,0.2C56,53.5,55.6,53.8,54.5,53.6z"/>
</g>
<g class="st0">
	<path class="st10" d="M54.5,53.6c-0.7-0.1-0.8-0.3-0.9-1l-0.1-1.7c-2.8,0.6-6.9,0.3-10.9-0.5l-7.4-1.5c-1.3-0.3-1.7-1-1.4-2.1
		c0.1-0.4,0.3-0.8,0.6-1.2c2.5-3.5,5-9,7.6-16.7c0.2-0.5,0.5-0.7,1.3-0.6c0.9,0.2,1.3,0.6,1.2,1.1c0,0.1-0.1,0.2-0.1,0.2
		c-2.7,8.2-5.1,13.3-7.5,16.6c-0.1,0.1-0.2,0.3-0.2,0.5c0,0.1,0,0.2,0.4,0.3l6.3,1.2c4.6,0.9,7.8,1,10.1,0.4L52.8,35
		c0-0.1,0-0.2,0-0.2c0.1-0.5,0.6-0.7,1.4-0.6c0.7,0.1,0.9,0.4,0.9,1l0.9,17.6c0,0.1,0,0.2,0,0.2C56,53.5,55.6,53.8,54.5,53.6z"/>
</g>
<g class="st0">
	<path class="st11" d="M54.5,53.6c-0.7-0.1-0.8-0.3-0.9-1l-0.1-1.7c-2.8,0.6-6.9,0.3-10.9-0.5l-7.4-1.5c-1.3-0.3-1.7-1-1.4-2.1
		c0.1-0.4,0.3-0.8,0.6-1.2c2.5-3.5,5-9,7.6-16.7c0.2-0.5,0.5-0.7,1.3-0.6c0.9,0.2,1.3,0.6,1.2,1.1c0,0.1-0.1,0.2-0.1,0.2
		c-2.7,8.2-5.1,13.3-7.5,16.6c-0.1,0.1-0.2,0.3-0.2,0.5c0,0.1,0,0.2,0.4,0.3l6.3,1.2c4.6,0.9,7.8,1,10.1,0.4L52.8,35
		c0-0.1,0-0.2,0-0.2c0.1-0.5,0.6-0.7,1.4-0.6c0.7,0.1,0.9,0.4,0.9,1l0.9,17.6c0,0.1,0,0.2,0,0.2C56,53.5,55.6,53.8,54.5,53.6z"/>
</g>
<path class="st14" d="M94.2,33.7h-1.1c-0.3,0-0.6,0.3-0.6,0.6v4.5c0,0.3,0.3,0.6,0.6,0.6h1.1c0.3,0,0.6-0.3,0.6-0.6v-4.5
	C94.7,34,94.5,33.7,94.2,33.7z"/>
<path class="st14" d="M100.1,39.1c-1.5,0-2.7,1.2-2.7,2.7s1.2,2.7,2.7,2.7c1.5,0,2.7-1.2,2.7-2.7l0,0
	C102.8,40.3,101.6,39.1,100.1,39.1z M100.1,43c-0.7,0-1.2-0.6-1.2-1.2s0.6-1.2,1.2-1.2s1.2,0.6,1.2,1.2
	C101.4,42.5,100.8,43,100.1,43z"/>
<path class="st14" d="M110.8,39.1c-1.5,0-2.7,1.2-2.7,2.7s1.2,2.7,2.7,2.7c1.5,0,2.7-1.2,2.7-2.7l0,0
	C113.5,40.3,112.3,39.1,110.8,39.1z M110.8,43c-0.7,0-1.2-0.6-1.2-1.2s0.6-1.2,1.2-1.2s1.2,0.6,1.2,1.2v0
	C112.1,42.5,111.5,43,110.8,43z"/>
<circle class="st14" cx="100.1" cy="41.8" r="0.4"/>
<path class="st14" d="M110.8,41.3c-0.2,0-0.4,0.2-0.4,0.4c0,0.2,0.2,0.4,0.4,0.4s0.4-0.2,0.4-0.4l0,0
	C111.3,41.5,111.1,41.4,110.8,41.3z"/>
<path class="st14" d="M115.2,35l-3.8-0.7l-3.5-2.7c-0.7-0.5-1.6-0.8-2.4-0.8h-8.3c-1,0-1.8,0.8-1.8,1.8v7.9c0,0.5,0.4,0.9,0.9,0.9
	H97c0.2-1.8,1.8-3,3.5-2.8c1.5,0.2,2.7,1.3,2.8,2.8h4.4c0.2-1.8,1.8-3,3.5-2.8c1.5,0.2,2.7,1.3,2.8,2.8h1.4c0.5,0,0.9-0.4,0.9-0.9
	v-4.2C116.3,35.7,115.8,35.2,115.2,35z M96.5,34.6c-0.1,0-0.2-0.1-0.2-0.2v-1.8c0-0.5,0.4-0.8,0.8-0.8h5v2.8L96.5,34.6L96.5,34.6z
	 M107.3,36.7H106c-0.1,0-0.2-0.1-0.2-0.2c0-0.1,0.1-0.2,0.2-0.2h1.3c0.1,0,0.2,0.1,0.2,0.2S107.3,36.7,107.3,36.7L107.3,36.7
	L107.3,36.7z M110,34.5c0,0-0.1,0.1-0.1,0.1h-7.1v-2.8h2.6c0.7,0,1.3,0.2,1.9,0.6l2.7,2C110,34.4,110,34.5,110,34.5L110,34.5z"/>
<path class="st11" d="M94.2,33.7h-1.1c-0.3,0-0.6,0.3-0.6,0.6v4.5c0,0.3,0.3,0.6,0.6,0.6h1.1c0.3,0,0.6-0.3,0.6-0.6v-4.5
	C94.7,34,94.5,33.7,94.2,33.7z"/>
<path class="st11" d="M100.1,39.1c-1.5,0-2.7,1.2-2.7,2.7s1.2,2.7,2.7,2.7c1.5,0,2.7-1.2,2.7-2.7l0,0
	C102.8,40.3,101.6,39.1,100.1,39.1z M100.1,43c-0.7,0-1.2-0.6-1.2-1.2s0.6-1.2,1.2-1.2s1.2,0.6,1.2,1.2
	C101.4,42.5,100.8,43,100.1,43z"/>
<path class="st11" d="M110.8,39.1c-1.5,0-2.7,1.2-2.7,2.7s1.2,2.7,2.7,2.7c1.5,0,2.7-1.2,2.7-2.7l0,0
	C113.5,40.3,112.3,39.1,110.8,39.1z M110.8,43c-0.7,0-1.2-0.6-1.2-1.2s0.6-1.2,1.2-1.2s1.2,0.6,1.2,1.2v0
	C112.1,42.5,111.5,43,110.8,43z"/>
<circle class="st11" cx="100.1" cy="41.8" r="0.4"/>
<path class="st11" d="M110.8,41.3c-0.2,0-0.4,0.2-0.4,0.4c0,0.2,0.2,0.4,0.4,0.4s0.4-0.2,0.4-0.4l0,0
	C111.3,41.5,111.1,41.4,110.8,41.3z"/>
<path class="st11" d="M115.2,35l-3.8-0.7l-3.5-2.7c-0.7-0.5-1.6-0.8-2.4-0.8h-8.3c-1,0-1.8,0.8-1.8,1.8v7.9c0,0.5,0.4,0.9,0.9,0.9
	H97c0.2-1.8,1.8-3,3.5-2.8c1.5,0.2,2.7,1.3,2.8,2.8h4.4c0.2-1.8,1.8-3,3.5-2.8c1.5,0.2,2.7,1.3,2.8,2.8h1.4c0.5,0,0.9-0.4,0.9-0.9
	v-4.2C116.3,35.7,115.8,35.2,115.2,35z M96.5,34.6c-0.1,0-0.2-0.1-0.2-0.2v-1.8c0-0.5,0.4-0.8,0.8-0.8h5v2.8L96.5,34.6L96.5,34.6z
	 M107.3,36.7H106c-0.1,0-0.2-0.1-0.2-0.2c0-0.1,0.1-0.2,0.2-0.2h1.3c0.1,0,0.2,0.1,0.2,0.2S107.3,36.7,107.3,36.7L107.3,36.7
	L107.3,36.7z M110,34.5c0,0-0.1,0.1-0.1,0.1h-7.1v-2.8h2.6c0.7,0,1.3,0.2,1.9,0.6l2.7,2C110,34.4,110,34.5,110,34.5L110,34.5z"/>
<g class="st0">
	<path class="st12" d="M147.4,37.5l-2.9,0.1c-0.6,4.1-2.5,7.9-5.3,10.9l8.3,3.4c0.5,0.2,0.6,0.6,0.6,1.1c0,0.5-0.4,1.1-1,1.1
		c-0.1,0-0.3,0-0.4-0.1l-9.2-3.9c-3.2,2.6-7.3,4.3-11.9,4.5c-0.5,0-1-0.4-1-1.1c0-0.6,0.4-1,0.9-1c3.8-0.1,7.1-1.4,9.8-3.3l-7.3-3.1
		c-0.7-0.3-1.1-0.9-1.1-1.5c0-0.3,0.1-0.7,0.3-1c1-1.6,1.9-3.6,2.7-5.6l-5.1,0.1c-0.5,0-1-0.4-1-1.1c0-0.6,0.5-1.1,0.9-1.1l5.9-0.1
		c0.5-1.6,0.9-3.2,1.1-4.5c0.1-0.5,0.5-0.8,1.2-0.8c0.6,0,1.1,0.4,1.1,1c0,0.8-0.7,3.5-1,4.3l14.3-0.3c0.4,0,0.9,0.4,1,1.1
		C148.3,37,147.8,37.5,147.4,37.5z M132.2,37.8c-0.8,2-1.7,4-2.8,5.8c-0.1,0.1-0.1,0.3-0.1,0.4c0,0.2,0.2,0.4,0.4,0.5l7.4,3.1
		c2.8-2.7,4.6-6.2,5.2-10L132.2,37.8z"/>
	<path class="st12" d="M173.5,43.3l-9.8,0.2l0.2,6.9c0.1,2.5-1.1,3.3-3.5,3.4l-3.4,0.1c-0.4,0-0.9-0.4-1-1.1c0-0.6,0.5-1,0.9-1.1
		l3.2-0.1c1.2,0,1.7-0.5,1.7-1.6l-0.2-6.5L151,43.9c-0.5,0-0.9-0.4-1-1c0-0.6,0.5-1.1,0.9-1.1l10.6-0.3l-0.1-3
		c0-1.1,0.6-1.8,1.6-2.1c4.9-1.3,6.6-3.4,6.6-3.9c0-0.1-0.1-0.3-0.4-0.3L152,32.7c-0.4,0-0.9-0.4-0.9-1c0-0.6,0.5-1,0.9-1l18.6-0.4
		c1,0,1.7,0.6,1.7,1.6c0,1.4-2.7,4.8-8.1,6.3c-0.4,0.1-0.6,0.4-0.6,0.8l0.1,2.6l9.8-0.2c0.4,0,0.9,0.4,1,1
		C174.4,42.9,174,43.3,173.5,43.3z"/>
</g>
<g class="st0">
	<path class="st15" d="M147.4,37.5l-2.9,0.1c-0.6,4.1-2.5,7.9-5.3,10.9l8.3,3.4c0.5,0.2,0.6,0.6,0.6,1.1c0,0.5-0.4,1.1-1,1.1
		c-0.1,0-0.3,0-0.4-0.1l-9.2-3.9c-3.2,2.6-7.3,4.3-11.9,4.5c-0.5,0-1-0.4-1-1.1c0-0.6,0.4-1,0.9-1c3.8-0.1,7.1-1.4,9.8-3.3l-7.3-3.1
		c-0.7-0.3-1.1-0.9-1.1-1.5c0-0.3,0.1-0.7,0.3-1c1-1.6,1.9-3.6,2.7-5.6l-5.1,0.1c-0.5,0-1-0.4-1-1.1c0-0.6,0.5-1.1,0.9-1.1l5.9-0.1
		c0.5-1.6,0.9-3.2,1.1-4.5c0.1-0.5,0.5-0.8,1.2-0.8c0.6,0,1.1,0.4,1.1,1c0,0.8-0.7,3.5-1,4.3l14.3-0.3c0.4,0,0.9,0.4,1,1.1
		C148.3,37,147.8,37.5,147.4,37.5z M132.2,37.8c-0.8,2-1.7,4-2.8,5.8c-0.1,0.1-0.1,0.3-0.1,0.4c0,0.2,0.2,0.4,0.4,0.5l7.4,3.1
		c2.8-2.7,4.6-6.2,5.2-10L132.2,37.8z"/>
	<path class="st15" d="M173.5,43.3l-9.8,0.2l0.2,6.9c0.1,2.5-1.1,3.3-3.5,3.4l-3.4,0.1c-0.4,0-0.9-0.4-1-1.1c0-0.6,0.5-1,0.9-1.1
		l3.2-0.1c1.2,0,1.7-0.5,1.7-1.6l-0.2-6.5L151,43.9c-0.5,0-0.9-0.4-1-1c0-0.6,0.5-1.1,0.9-1.1l10.6-0.3l-0.1-3
		c0-1.1,0.6-1.8,1.6-2.1c4.9-1.3,6.6-3.4,6.6-3.9c0-0.1-0.1-0.3-0.4-0.3L152,32.7c-0.4,0-0.9-0.4-0.9-1c0-0.6,0.5-1,0.9-1l18.6-0.4
		c1,0,1.7,0.6,1.7,1.6c0,1.4-2.7,4.8-8.1,6.3c-0.4,0.1-0.6,0.4-0.6,0.8l0.1,2.6l9.8-0.2c0.4,0,0.9,0.4,1,1
		C174.4,42.9,174,43.3,173.5,43.3z"/>
</g>
<g class="st0">
	<path class="st16" d="M147.4,37.5l-2.9,0.1c-0.6,4.1-2.5,7.9-5.3,10.9l8.3,3.4c0.5,0.2,0.6,0.6,0.6,1.1c0,0.5-0.4,1.1-1,1.1
		c-0.1,0-0.3,0-0.4-0.1l-9.2-3.9c-3.2,2.6-7.3,4.3-11.9,4.5c-0.5,0-1-0.4-1-1.1c0-0.6,0.4-1,0.9-1c3.8-0.1,7.1-1.4,9.8-3.3l-7.3-3.1
		c-0.7-0.3-1.1-0.9-1.1-1.5c0-0.3,0.1-0.7,0.3-1c1-1.6,1.9-3.6,2.7-5.6l-5.1,0.1c-0.5,0-1-0.4-1-1.1c0-0.6,0.5-1.1,0.9-1.1l5.9-0.1
		c0.5-1.6,0.9-3.2,1.1-4.5c0.1-0.5,0.5-0.8,1.2-0.8c0.6,0,1.1,0.4,1.1,1c0,0.8-0.7,3.5-1,4.3l14.3-0.3c0.4,0,0.9,0.4,1,1.1
		C148.3,37,147.8,37.5,147.4,37.5z M132.2,37.8c-0.8,2-1.7,4-2.8,5.8c-0.1,0.1-0.1,0.3-0.1,0.4c0,0.2,0.2,0.4,0.4,0.5l7.4,3.1
		c2.8-2.7,4.6-6.2,5.2-10L132.2,37.8z"/>
	<path class="st16" d="M173.5,43.3l-9.8,0.2l0.2,6.9c0.1,2.5-1.1,3.3-3.5,3.4l-3.4,0.1c-0.4,0-0.9-0.4-1-1.1c0-0.6,0.5-1,0.9-1.1
		l3.2-0.1c1.2,0,1.7-0.5,1.7-1.6l-0.2-6.5L151,43.9c-0.5,0-0.9-0.4-1-1c0-0.6,0.5-1.1,0.9-1.1l10.6-0.3l-0.1-3
		c0-1.1,0.6-1.8,1.6-2.1c4.9-1.3,6.6-3.4,6.6-3.9c0-0.1-0.1-0.3-0.4-0.3L152,32.7c-0.4,0-0.9-0.4-0.9-1c0-0.6,0.5-1,0.9-1l18.6-0.4
		c1,0,1.7,0.6,1.7,1.6c0,1.4-2.7,4.8-8.1,6.3c-0.4,0.1-0.6,0.4-0.6,0.8l0.1,2.6l9.8-0.2c0.4,0,0.9,0.4,1,1
		C174.4,42.9,174,43.3,173.5,43.3z"/>
</g>
<g class="st0">
	<path class="st16" d="M147.4,37.5l-2.9,0.1c-0.6,4.1-2.5,7.9-5.3,10.9l8.3,3.4c0.5,0.2,0.6,0.6,0.6,1.1c0,0.5-0.4,1.1-1,1.1
		c-0.1,0-0.3,0-0.4-0.1l-9.2-3.9c-3.2,2.6-7.3,4.3-11.9,4.5c-0.5,0-1-0.4-1-1.1c0-0.6,0.4-1,0.9-1c3.8-0.1,7.1-1.4,9.8-3.3l-7.3-3.1
		c-0.7-0.3-1.1-0.9-1.1-1.5c0-0.3,0.1-0.7,0.3-1c1-1.6,1.9-3.6,2.7-5.6l-5.1,0.1c-0.5,0-1-0.4-1-1.1c0-0.6,0.5-1.1,0.9-1.1l5.9-0.1
		c0.5-1.6,0.9-3.2,1.1-4.5c0.1-0.5,0.5-0.8,1.2-0.8c0.6,0,1.1,0.4,1.1,1c0,0.8-0.7,3.5-1,4.3l14.3-0.3c0.4,0,0.9,0.4,1,1.1
		C148.3,37,147.8,37.5,147.4,37.5z M132.2,37.8c-0.8,2-1.7,4-2.8,5.8c-0.1,0.1-0.1,0.3-0.1,0.4c0,0.2,0.2,0.4,0.4,0.5l7.4,3.1
		c2.8-2.7,4.6-6.2,5.2-10L132.2,37.8z"/>
	<path class="st16" d="M173.5,43.3l-9.8,0.2l0.2,6.9c0.1,2.5-1.1,3.3-3.5,3.4l-3.4,0.1c-0.4,0-0.9-0.4-1-1.1c0-0.6,0.5-1,0.9-1.1
		l3.2-0.1c1.2,0,1.7-0.5,1.7-1.6l-0.2-6.5L151,43.9c-0.5,0-0.9-0.4-1-1c0-0.6,0.5-1.1,0.9-1.1l10.6-0.3l-0.1-3
		c0-1.1,0.6-1.8,1.6-2.1c4.9-1.3,6.6-3.4,6.6-3.9c0-0.1-0.1-0.3-0.4-0.3L152,32.7c-0.4,0-0.9-0.4-0.9-1c0-0.6,0.5-1,0.9-1l18.6-0.4
		c1,0,1.7,0.6,1.7,1.6c0,1.4-2.7,4.8-8.1,6.3c-0.4,0.1-0.6,0.4-0.6,0.8l0.1,2.6l9.8-0.2c0.4,0,0.9,0.4,1,1
		C174.4,42.9,174,43.3,173.5,43.3z"/>
</g>
<g class="st0">
	<path class="st1" d="M174.7,48.9h-5.3c-0.2,0-0.3-0.2-0.3-0.4c0-0.2,0.1-0.4,0.3-0.4h5.3c0.2,0,0.2,0.1,0.2,0.4
		C174.9,48.8,174.8,48.9,174.7,48.9z M171,55.3h-1.3c-0.2,0-0.3-0.1-0.3-0.4c0-0.3,0.1-0.4,0.3-0.4h1.3c3.1,0,4.5-1.1,4.5-4.2v-0.7
		c0-0.2,0.2-0.4,0.4-0.4s0.4,0.2,0.4,0.4v0.7C176.2,53.7,174.6,55.3,171,55.3z M175.5,49c-0.2,0-0.2-0.1-0.2-0.2v-1
		c0-0.2,0.1-0.2,0.2-0.2c0.2,0,0.3,0.1,0.3,0.2v1C175.8,48.9,175.7,49,175.5,49z M176.5,49c-0.2,0-0.3-0.1-0.3-0.2v-1
		c0-0.2,0.1-0.2,0.3-0.2c0.2,0,0.3,0.1,0.3,0.2v1C176.7,48.9,176.7,49,176.5,49z"/>
</g>
<g class="st0">
	<path class="st1" d="M184,55.1h-5.7c-0.4,0-0.7-0.2-0.7-0.7v-5.6c0-0.4,0.2-0.7,0.7-0.7h5.7c0.4,0,0.7,0.3,0.7,0.7v5.6
		C184.7,54.8,184.5,55.1,184,55.1z M183.9,49.2c0-0.2-0.1-0.2-0.2-0.2h-5c-0.2,0-0.2,0.1-0.2,0.2V54c0,0.2,0.1,0.2,0.2,0.2h5
		c0.2,0,0.2-0.1,0.2-0.2V49.2z"/>
</g>
<g class="st0">
	<path class="st1" d="M191.5,49H188c-0.2,0-0.3,0.1-0.3,0.3c-0.1,1.1-0.5,1.8-1.4,2.4c-0.1,0.1-0.2,0.1-0.3,0.1
		c-0.2,0-0.4-0.2-0.4-0.4c0-0.2,0.1-0.2,0.2-0.3c0.7-0.4,1-1.2,1.1-2.1c0-0.4,0.3-0.7,0.8-0.7h3.7c0.2,0,0.3,0.1,0.3,0.4
		C191.7,48.8,191.7,49,191.5,49z M188.1,55.3h-1.5c-0.2,0-0.3-0.2-0.3-0.4c0-0.2,0.2-0.4,0.3-0.4h1.5c2.8,0,4.3-1.2,4.3-3.6v-1.3
		c0-0.2,0.1-0.3,0.4-0.3c0.3,0,0.4,0.1,0.4,0.3V51C193.1,53.7,191.6,55.3,188.1,55.3z M192.3,49c-0.2,0-0.2-0.1-0.2-0.2v-1
		c0-0.2,0.1-0.2,0.2-0.2c0.2,0,0.3,0.1,0.3,0.2v1C192.6,48.9,192.5,49,192.3,49z M193.3,49c-0.2,0-0.3-0.1-0.3-0.2v-1
		c0-0.2,0.1-0.2,0.3-0.2c0.2,0,0.3,0.1,0.3,0.2v1C193.5,48.9,193.5,49,193.3,49z"/>
</g>
<g class="st0">
	<path class="st2" d="M174.7,48.9h-5.3c-0.2,0-0.3-0.2-0.3-0.4c0-0.2,0.1-0.4,0.3-0.4h5.3c0.2,0,0.2,0.1,0.2,0.4
		C174.9,48.8,174.8,48.9,174.7,48.9z M171,55.3h-1.3c-0.2,0-0.3-0.1-0.3-0.4c0-0.3,0.1-0.4,0.3-0.4h1.3c3.1,0,4.5-1.1,4.5-4.2v-0.7
		c0-0.2,0.2-0.4,0.4-0.4s0.4,0.2,0.4,0.4v0.7C176.2,53.7,174.6,55.3,171,55.3z M175.5,49c-0.2,0-0.2-0.1-0.2-0.2v-1
		c0-0.2,0.1-0.2,0.2-0.2c0.2,0,0.3,0.1,0.3,0.2v1C175.8,48.9,175.7,49,175.5,49z M176.5,49c-0.2,0-0.3-0.1-0.3-0.2v-1
		c0-0.2,0.1-0.2,0.3-0.2c0.2,0,0.3,0.1,0.3,0.2v1C176.7,48.9,176.7,49,176.5,49z"/>
</g>
<g class="st0">
	<path class="st2" d="M184,55.1h-5.7c-0.4,0-0.7-0.2-0.7-0.7v-5.6c0-0.4,0.2-0.7,0.7-0.7h5.7c0.4,0,0.7,0.3,0.7,0.7v5.6
		C184.7,54.8,184.5,55.1,184,55.1z M183.9,49.2c0-0.2-0.1-0.2-0.2-0.2h-5c-0.2,0-0.2,0.1-0.2,0.2V54c0,0.2,0.1,0.2,0.2,0.2h5
		c0.2,0,0.2-0.1,0.2-0.2V49.2z"/>
</g>
<g class="st0">
	<path class="st2" d="M191.5,49H188c-0.2,0-0.3,0.1-0.3,0.3c-0.1,1.1-0.5,1.8-1.4,2.4c-0.1,0.1-0.2,0.1-0.3,0.1
		c-0.2,0-0.4-0.2-0.4-0.4c0-0.2,0.1-0.2,0.2-0.3c0.7-0.4,1-1.2,1.1-2.1c0-0.4,0.3-0.7,0.8-0.7h3.7c0.2,0,0.3,0.1,0.3,0.4
		C191.7,48.8,191.7,49,191.5,49z M188.1,55.3h-1.5c-0.2,0-0.3-0.2-0.3-0.4c0-0.2,0.2-0.4,0.3-0.4h1.5c2.8,0,4.3-1.2,4.3-3.6v-1.3
		c0-0.2,0.1-0.3,0.4-0.3c0.3,0,0.4,0.1,0.4,0.3V51C193.1,53.7,191.6,55.3,188.1,55.3z M192.3,49c-0.2,0-0.2-0.1-0.2-0.2v-1
		c0-0.2,0.1-0.2,0.2-0.2c0.2,0,0.3,0.1,0.3,0.2v1C192.6,48.9,192.5,49,192.3,49z M193.3,49c-0.2,0-0.3-0.1-0.3-0.2v-1
		c0-0.2,0.1-0.2,0.3-0.2c0.2,0,0.3,0.1,0.3,0.2v1C193.5,48.9,193.5,49,193.3,49z"/>
</g>
<g class="st0">
	<path class="st3" d="M174.7,48.9h-5.3c-0.2,0-0.3-0.2-0.3-0.4c0-0.2,0.1-0.4,0.3-0.4h5.3c0.2,0,0.2,0.1,0.2,0.4
		C174.9,48.8,174.8,48.9,174.7,48.9z M171,55.3h-1.3c-0.2,0-0.3-0.1-0.3-0.4c0-0.3,0.1-0.4,0.3-0.4h1.3c3.1,0,4.5-1.1,4.5-4.2v-0.7
		c0-0.2,0.2-0.4,0.4-0.4s0.4,0.2,0.4,0.4v0.7C176.2,53.7,174.6,55.3,171,55.3z M175.5,49c-0.2,0-0.2-0.1-0.2-0.2v-1
		c0-0.2,0.1-0.2,0.2-0.2c0.2,0,0.3,0.1,0.3,0.2v1C175.8,48.9,175.7,49,175.5,49z M176.5,49c-0.2,0-0.3-0.1-0.3-0.2v-1
		c0-0.2,0.1-0.2,0.3-0.2c0.2,0,0.3,0.1,0.3,0.2v1C176.7,48.9,176.7,49,176.5,49z"/>
</g>
<g class="st0">
	<path class="st3" d="M184,55.1h-5.7c-0.4,0-0.7-0.2-0.7-0.7v-5.6c0-0.4,0.2-0.7,0.7-0.7h5.7c0.4,0,0.7,0.3,0.7,0.7v5.6
		C184.7,54.8,184.5,55.1,184,55.1z M183.9,49.2c0-0.2-0.1-0.2-0.2-0.2h-5c-0.2,0-0.2,0.1-0.2,0.2V54c0,0.2,0.1,0.2,0.2,0.2h5
		c0.2,0,0.2-0.1,0.2-0.2V49.2z"/>
</g>
<g class="st0">
	<path class="st3" d="M191.5,49H188c-0.2,0-0.3,0.1-0.3,0.3c-0.1,1.1-0.5,1.8-1.4,2.4c-0.1,0.1-0.2,0.1-0.3,0.1
		c-0.2,0-0.4-0.2-0.4-0.4c0-0.2,0.1-0.2,0.2-0.3c0.7-0.4,1-1.2,1.1-2.1c0-0.4,0.3-0.7,0.8-0.7h3.7c0.2,0,0.3,0.1,0.3,0.4
		C191.7,48.8,191.7,49,191.5,49z M188.1,55.3h-1.5c-0.2,0-0.3-0.2-0.3-0.4c0-0.2,0.2-0.4,0.3-0.4h1.5c2.8,0,4.3-1.2,4.3-3.6v-1.3
		c0-0.2,0.1-0.3,0.4-0.3c0.3,0,0.4,0.1,0.4,0.3V51C193.1,53.7,191.6,55.3,188.1,55.3z M192.3,49c-0.2,0-0.2-0.1-0.2-0.2v-1
		c0-0.2,0.1-0.2,0.2-0.2c0.2,0,0.3,0.1,0.3,0.2v1C192.6,48.9,192.5,49,192.3,49z M193.3,49c-0.2,0-0.3-0.1-0.3-0.2v-1
		c0-0.2,0.1-0.2,0.3-0.2c0.2,0,0.3,0.1,0.3,0.2v1C193.5,48.9,193.5,49,193.3,49z"/>
</g>
<ellipse transform="matrix(0.9906 -0.1368 0.1368 0.9906 -1.6552 2.8052)" class="st11" cx="19.6" cy="13.4" rx="16" ry="8.8"/>
<polygon class="st11" points="35.6,25.8 27.5,15.3 23.7,20.1 "/>
<g class="st0">
	<path class="st17" d="M12.5,15.8c0.3,2.3-0.7,3.1-2.3,3.4c-0.4,0.1-0.9,0.1-1.2,0l0-1.3c0.2,0,0.5,0.1,0.8,0c0.7-0.1,1.2-0.5,1-1.8
		l-0.8-5.5l1.6-0.2L12.5,15.8z"/>
	<path class="st17" d="M20.5,17.7l-1.7,0.2l-0.9-2.1l-2.2,0.3l-0.3,2.3l-1.6,0.2L15,9.9l2-0.3L20.5,17.7z M17.5,14.6l-0.8-1.8
		c-0.2-0.5-0.4-1.2-0.6-1.7l0,0c0,0.5-0.1,1.2-0.1,1.8l-0.2,2L17.5,14.6z"/>
	<path class="st17" d="M23.4,17.3l-0.9-6.8l0,0l-1.3,0.9l-0.5-1.1L22.4,9l1.4-0.2l1.1,8.2L23.4,17.3z"/>
	<path class="st17" d="M29.5,16.4l-0.9-6.8l0,0l-1.3,0.9l-0.5-1.1l1.9-1.3L29.9,8l1.1,8.2L29.5,16.4z"/>
</g>
<text transform="matrix(1 0 0 1 37.9237 -71.3892)" class="st1" style="font-family:'VDL-LogoMaru-Regular-90ms-RKSJ-H'; font-size:12.6927px; letter-spacing:-1;">ア</text>
<text transform="matrix(1 0 0 1 49.5633 -71.3892)" class="st1" style="font-family:'VDL-LogoMaru-Regular-90ms-RKSJ-H'; font-size:12.6927px; letter-spacing:-1;">カ</text>
<text transform="matrix(1 0 0 1 61.0121 -71.3892)" class="st1" style="font-family:'VDL-LogoMaru-Regular-90ms-RKSJ-H'; font-size:12.6927px;">チ</text>
<text transform="matrix(1 0 0 1 37.9237 -71.3892)" class="st2" style="font-family:'VDL-LogoMaru-Regular-90ms-RKSJ-H'; font-size:12.6927px; letter-spacing:-1;">ア</text>
<text transform="matrix(1 0 0 1 49.5633 -71.3892)" class="st2" style="font-family:'VDL-LogoMaru-Regular-90ms-RKSJ-H'; font-size:12.6927px; letter-spacing:-1;">カ</text>
<text transform="matrix(1 0 0 1 61.0121 -71.3892)" class="st2" style="font-family:'VDL-LogoMaru-Regular-90ms-RKSJ-H'; font-size:12.6927px;">チ</text>
<text transform="matrix(1 0 0 1 37.9237 -71.3892)" class="st3" style="font-family:'VDL-LogoMaru-Regular-90ms-RKSJ-H'; font-size:12.6927px; letter-spacing:-1;">ア</text>
<text transform="matrix(1 0 0 1 49.5633 -71.3892)" class="st3" style="font-family:'VDL-LogoMaru-Regular-90ms-RKSJ-H'; font-size:12.6927px; letter-spacing:-1;">カ</text>
<text transform="matrix(1 0 0 1 61.0121 -71.3892)" class="st3" style="font-family:'VDL-LogoMaru-Regular-90ms-RKSJ-H'; font-size:12.6927px;">チ</text>
<text transform="matrix(1 0 0 1 76.39 -71.4302)" class="st1" style="font-family:'VDL-LogoMaru-Regular-90ms-RKSJ-H'; font-size:7.6156px;">ェ</text>
<text transform="matrix(1 0 0 1 76.39 -71.4302)" class="st2" style="font-family:'VDL-LogoMaru-Regular-90ms-RKSJ-H'; font-size:7.6156px;">ェ</text>
<text transform="matrix(1 0 0 1 76.39 -71.4302)" class="st3" style="font-family:'VDL-LogoMaru-Regular-90ms-RKSJ-H'; font-size:7.6156px;">ェ</text>
<g>
	
		<text transform="matrix(1 0 0 1 85.5682 -71.4302)" class="st1" style="font-family:'VDL-LogoMaru-Regular-90ms-RKSJ-H'; font-size:12.6927px; letter-spacing:-1;">リ</text>
	
		<text transform="matrix(1 0 0 1 98.1707 -72.4206)" class="st1" style="font-family:'VDL-LogoMaru-Regular-90ms-RKSJ-H'; font-size:8.8849px;">ー</text>
	
		<text transform="matrix(1 0 0 1 107.0316 -71.4302)" class="st1" style="font-family:'VDL-LogoMaru-Regular-90ms-RKSJ-H'; font-size:12.6927px;">ナ</text>
</g>
<g>
	
		<text transform="matrix(1 0 0 1 85.5682 -71.4302)" class="st2" style="font-family:'VDL-LogoMaru-Regular-90ms-RKSJ-H'; font-size:12.6927px; letter-spacing:-1;">リ</text>
	
		<text transform="matrix(1 0 0 1 98.1707 -72.4206)" class="st2" style="font-family:'VDL-LogoMaru-Regular-90ms-RKSJ-H'; font-size:8.8849px;">ー</text>
	
		<text transform="matrix(1 0 0 1 107.0316 -71.4302)" class="st2" style="font-family:'VDL-LogoMaru-Regular-90ms-RKSJ-H'; font-size:12.6927px;">ナ</text>
</g>
<g>
	
		<text transform="matrix(1 0 0 1 85.5682 -71.4302)" class="st3" style="font-family:'VDL-LogoMaru-Regular-90ms-RKSJ-H'; font-size:12.6927px; letter-spacing:-1;">リ</text>
	
		<text transform="matrix(1 0 0 1 98.1707 -72.4206)" class="st3" style="font-family:'VDL-LogoMaru-Regular-90ms-RKSJ-H'; font-size:8.8849px;">ー</text>
	
		<text transform="matrix(1 0 0 1 107.0316 -71.4302)" class="st3" style="font-family:'VDL-LogoMaru-Regular-90ms-RKSJ-H'; font-size:12.6927px;">ナ</text>
</g>
<g>
	
		<text transform="matrix(1 0 0 1 120.5623 -71.0562)" class="st1" style="font-family:'VDL-LogoMaru-Regular-90ms-RKSJ-H'; font-size:12.6927px; letter-spacing:1;">4</text>
	
		<text transform="matrix(1 0 0 1 131.9598 -71.0562)" class="st1" style="font-family:'VDL-LogoMaru-Regular-90ms-RKSJ-H'; font-size:12.6927px; letter-spacing:-1;">世</text>
</g>
<g>
	
		<text transform="matrix(1 0 0 1 120.5623 -71.0562)" class="st4" style="font-family:'VDL-LogoMaru-Regular-90ms-RKSJ-H'; font-size:12.6927px; letter-spacing:1;">4</text>
	
		<text transform="matrix(1 0 0 1 131.9598 -71.0562)" class="st4" style="font-family:'VDL-LogoMaru-Regular-90ms-RKSJ-H'; font-size:12.6927px; letter-spacing:-1;">世</text>
</g>
<g>
	
		<text transform="matrix(1 0 0 1 120.5623 -71.0562)" class="st5" style="font-family:'VDL-LogoMaru-Regular-90ms-RKSJ-H'; font-size:12.6927px; letter-spacing:1;">4</text>
	
		<text transform="matrix(1 0 0 1 131.9598 -71.0562)" class="st5" style="font-family:'VDL-LogoMaru-Regular-90ms-RKSJ-H'; font-size:12.6927px; letter-spacing:-1;">世</text>
</g>
<path class="st6" d="M151.6-82.9c0.2-0.4,0-0.8-0.4-1s-0.8,0-1,0.4c-0.1,0.2-0.1,0.4,0,0.6c-0.7,0.7-1.8,0.8-2.5,0.2
	c-0.4-0.6-0.5-1.4-0.2-2.1c0.5,0,0.8-0.5,0.8-1c0-0.5-0.5-0.8-1-0.8c-0.5,0-0.8,0.5-0.8,1c0,0.2,0.1,0.3,0.2,0.5
	c-0.3,0.6-0.9,1.3-1.6,1.3c-1-0.1-1.7-0.9-1.7-1.9c0.4-0.2,0.6-0.6,0.4-1c-0.2-0.4-0.6-0.6-1-0.4s-0.6,0.6-0.4,1
	c0.1,0.2,0.2,0.3,0.3,0.4l-0.4,3.3l6.5,2.6l2-2.7C151-82.4,151.4-82.6,151.6-82.9z"/>
<path class="st6" d="M148.5-78.4c-0.1,0.3-0.5,0.4-0.7,0.3c0,0,0,0,0,0l0,0l-6.2-2.5c-0.3-0.1-0.4-0.5-0.3-0.7v0l0,0
	c0.1-0.3,0.5-0.4,0.7-0.3l0,0l6.2,2.5C148.5-79,148.6-78.7,148.5-78.4L148.5-78.4L148.5-78.4z"/>
<path class="st5" d="M151.6-82.9c0.2-0.4,0-0.8-0.4-1s-0.8,0-1,0.4c-0.1,0.2-0.1,0.4,0,0.6c-0.7,0.7-1.8,0.8-2.5,0.2
	c-0.4-0.6-0.5-1.4-0.2-2.1c0.5,0,0.8-0.5,0.8-1c0-0.5-0.5-0.8-1-0.8c-0.5,0-0.8,0.5-0.8,1c0,0.2,0.1,0.3,0.2,0.5
	c-0.3,0.6-0.9,1.3-1.6,1.3c-1-0.1-1.7-0.9-1.7-1.9c0.4-0.2,0.6-0.6,0.4-1c-0.2-0.4-0.6-0.6-1-0.4s-0.6,0.6-0.4,1
	c0.1,0.2,0.2,0.3,0.3,0.4l-0.4,3.3l6.5,2.6l2-2.7C151-82.4,151.4-82.6,151.6-82.9z"/>
<path class="st5" d="M148.5-78.4c-0.1,0.3-0.5,0.4-0.7,0.3c0,0,0,0,0,0l0,0l-6.2-2.5c-0.3-0.1-0.4-0.5-0.3-0.7v0l0,0
	c0.1-0.3,0.5-0.4,0.7-0.3l0,0l6.2,2.5C148.5-79,148.6-78.7,148.5-78.4L148.5-78.4L148.5-78.4z"/>
<path class="st7" d="M151.6-82.9c0.2-0.4,0-0.8-0.4-1s-0.8,0-1,0.4c-0.1,0.2-0.1,0.4,0,0.6c-0.7,0.7-1.8,0.8-2.5,0.2
	c-0.4-0.6-0.5-1.4-0.2-2.1c0.5,0,0.8-0.5,0.8-1c0-0.5-0.5-0.8-1-0.8c-0.5,0-0.8,0.5-0.8,1c0,0.2,0.1,0.3,0.2,0.5
	c-0.3,0.6-0.9,1.3-1.6,1.3c-1-0.1-1.7-0.9-1.7-1.9c0.4-0.2,0.6-0.6,0.4-1c-0.2-0.4-0.6-0.6-1-0.4s-0.6,0.6-0.4,1
	c0.1,0.2,0.2,0.3,0.3,0.4l-0.4,3.3l6.5,2.6l2-2.7C151-82.4,151.4-82.6,151.6-82.9z"/>
<path class="st7" d="M148.5-78.4c-0.1,0.3-0.5,0.4-0.7,0.3c0,0,0,0,0,0l0,0l-6.2-2.5c-0.3-0.1-0.4-0.5-0.3-0.7v0l0,0
	c0.1-0.3,0.5-0.4,0.7-0.3l0,0l6.2,2.5C148.5-79,148.6-78.7,148.5-78.4L148.5-78.4L148.5-78.4z"/>
<path class="st6" d="M77.6-81.7l-0.3-0.2c-0.3-0.2-0.7,0-0.8,0.3l-0.6,1.2c-0.2,0.3-0.1,0.7,0.2,0.9l0.3,0.2c0.3,0.2,0.7,0,0.8-0.3
	l0.6-1.2C78-81.1,77.9-81.5,77.6-81.7z"/>
<path class="st6" d="M76.2-82.3l-0.7-1.3c-0.1-0.2-0.3-0.3-0.5-0.3c-0.2,0-0.4,0.2-0.5,0.4l-0.6,1.1l-0.6,1.1
	c-0.1,0.2-0.1,0.4,0,0.7c0.1,0.2,0.3,0.3,0.5,0.3l1.4-0.1c0.2,0,0.4-0.2,0.5-0.4l0.2-0.5l0.2-0.5C76.3-81.9,76.3-82.1,76.2-82.3z"/>
<path class="st6" d="M80.6-80.8c-0.1-0.2-0.3-0.3-0.5-0.3L78.6-81c-0.2,0-0.4,0.2-0.5,0.4l-0.2,0.5l-0.2,0.5c-0.1,0.2-0.1,0.4,0,0.6
	l0.7,1.3c0.1,0.2,0.3,0.3,0.5,0.3c0.2,0,0.4-0.2,0.5-0.4l0.6-1.1l0.6-1.1C80.7-80.3,80.7-80.6,80.6-80.8z"/>
<path class="st8" d="M77.6-81.7l-0.3-0.2c-0.3-0.2-0.7,0-0.8,0.3l-0.6,1.2c-0.2,0.3-0.1,0.7,0.2,0.9l0.3,0.2c0.3,0.2,0.7,0,0.8-0.3
	l0.6-1.2C78-81.1,77.9-81.5,77.6-81.7z"/>
<path class="st8" d="M76.2-82.3l-0.7-1.3c-0.1-0.2-0.3-0.3-0.5-0.3c-0.2,0-0.4,0.2-0.5,0.4l-0.6,1.1l-0.6,1.1
	c-0.1,0.2-0.1,0.4,0,0.7c0.1,0.2,0.3,0.3,0.5,0.3l1.4-0.1c0.2,0,0.4-0.2,0.5-0.4l0.2-0.5l0.2-0.5C76.3-81.9,76.3-82.1,76.2-82.3z"/>
<path class="st8" d="M80.6-80.8c-0.1-0.2-0.3-0.3-0.5-0.3L78.6-81c-0.2,0-0.4,0.2-0.5,0.4l-0.2,0.5l-0.2,0.5c-0.1,0.2-0.1,0.4,0,0.6
	l0.7,1.3c0.1,0.2,0.3,0.3,0.5,0.3c0.2,0,0.4-0.2,0.5-0.4l0.6-1.1l0.6-1.1C80.7-80.3,80.7-80.6,80.6-80.8z"/>
<text transform="matrix(1 0 0 1 147.5985 -71.3169)" class="st1" style="font-family:'VDL-LogoMaru-Regular-90ms-RKSJ-H'; font-size:7.6156px;">の</text>
<text transform="matrix(1 0 0 1 147.5985 -71.3169)" class="st2" style="font-family:'VDL-LogoMaru-Regular-90ms-RKSJ-H'; font-size:7.6156px;">の</text>
<text transform="matrix(1 0 0 1 147.5985 -71.3169)" class="st3" style="font-family:'VDL-LogoMaru-Regular-90ms-RKSJ-H'; font-size:7.6156px;">の</text>
<text transform="matrix(0.9844 -0.1758 0.1758 0.9844 5.0905 -34.9197)" class="st9" style="font-family:'VDL-LogoMaru-Regular-90ms-RKSJ-H'; font-size:26.5322px; letter-spacing:-1;">ジ</text>
<text transform="matrix(0.9844 -0.1758 0.1758 0.9844 5.0905 -34.9197)" class="st10" style="font-family:'VDL-LogoMaru-Regular-90ms-RKSJ-H'; font-size:26.5322px; letter-spacing:-1;">ジ</text>
<text transform="matrix(0.9844 -0.1758 0.1758 0.9844 5.0905 -34.9197)" class="st11" style="font-family:'VDL-LogoMaru-Regular-90ms-RKSJ-H'; font-size:26.5322px; letter-spacing:-1;">ジ</text>
<text transform="matrix(1 7.700392e-04 -7.700392e-04 1 85.3543 -29.9932)" class="st12" style="font-family:'VDL-LogoMaru-Regular-90ms-RKSJ-H'; font-size:26.5322px; letter-spacing:-2;">ー</text>
<text transform="matrix(1 7.700392e-04 -7.700392e-04 1 85.3543 -29.9932)" class="st13" style="font-family:'VDL-LogoMaru-Regular-90ms-RKSJ-H'; font-size:26.5322px; letter-spacing:-2;">ー</text>
<text transform="matrix(1 7.700392e-04 -7.700392e-04 1 85.3543 -29.9932)" class="st11" style="font-family:'VDL-LogoMaru-Regular-90ms-RKSJ-H'; font-size:26.5322px; letter-spacing:-2;">ー</text>
<text transform="matrix(0.9906 -0.1368 0.1368 0.9906 59.3484 -34.4461)" class="st9" style="font-family:'VDL-LogoMaru-Regular-90ms-RKSJ-H'; font-size:26.5322px; letter-spacing:-1;">ニ</text>
<text transform="matrix(0.9906 -0.1368 0.1368 0.9906 59.3484 -34.4461)" class="st10" style="font-family:'VDL-LogoMaru-Regular-90ms-RKSJ-H'; font-size:26.5322px; letter-spacing:-1;">ニ</text>
<text transform="matrix(0.9906 -0.1368 0.1368 0.9906 59.3484 -34.4461)" class="st11" style="font-family:'VDL-LogoMaru-Regular-90ms-RKSJ-H'; font-size:26.5322px; letter-spacing:-1;">ニ</text>
<text transform="matrix(0.9811 0.1936 -0.1936 0.9811 28.6131 -40.9447)" class="st9" style="font-family:'VDL-LogoMaru-Regular-90ms-RKSJ-H'; font-size:26.5322px; letter-spacing:-1;">ム</text>
<text transform="matrix(0.9811 0.1936 -0.1936 0.9811 28.6131 -40.9447)" class="st10" style="font-family:'VDL-LogoMaru-Regular-90ms-RKSJ-H'; font-size:26.5322px; letter-spacing:-1;">ム</text>
<text transform="matrix(0.9811 0.1936 -0.1936 0.9811 28.6131 -40.9447)" class="st11" style="font-family:'VDL-LogoMaru-Regular-90ms-RKSJ-H'; font-size:26.5322px; letter-spacing:-1;">ム</text>
<path class="st14" d="M90-55.2h-1.1c-0.3,0-0.6,0.3-0.6,0.6v4.5c0,0.3,0.3,0.6,0.6,0.6H90c0.3,0,0.6-0.3,0.6-0.6v-4.5
	C90.6-54.9,90.3-55.2,90-55.2z"/>
<path class="st14" d="M95.9-49.8c-1.5,0-2.7,1.2-2.7,2.7s1.2,2.7,2.7,2.7c1.5,0,2.7-1.2,2.7-2.7l0,0C98.6-48.6,97.4-49.8,95.9-49.8z
	 M95.9-45.9c-0.7,0-1.2-0.6-1.2-1.2s0.6-1.2,1.2-1.2s1.2,0.6,1.2,1.2C97.2-46.4,96.6-45.9,95.9-45.9z"/>
<path class="st14" d="M106.7-49.8c-1.5,0-2.7,1.2-2.7,2.7s1.2,2.7,2.7,2.7c1.5,0,2.7-1.2,2.7-2.7l0,0
	C109.3-48.6,108.1-49.8,106.7-49.8z M106.7-45.9c-0.7,0-1.2-0.6-1.2-1.2s0.6-1.2,1.2-1.2s1.2,0.6,1.2,1.2v0
	C107.9-46.4,107.3-45.9,106.7-45.9z"/>
<circle class="st14" cx="95.9" cy="-47.1" r="0.4"/>
<path class="st14" d="M106.7-47.5c-0.2,0-0.4,0.2-0.4,0.4c0,0.2,0.2,0.4,0.4,0.4s0.4-0.2,0.4-0.4l0,0
	C107.1-47.3,106.9-47.5,106.7-47.5z"/>
<path class="st14" d="M111-53.8l-3.8-0.7l-3.5-2.7c-0.7-0.5-1.6-0.8-2.4-0.8H93c-1,0-1.8,0.8-1.8,1.8v7.9c0,0.5,0.4,0.9,0.9,0.9h0.7
	c0.2-1.8,1.8-3,3.5-2.8c1.5,0.2,2.7,1.3,2.8,2.8h4.4c0.2-1.8,1.8-3,3.5-2.8c1.5,0.2,2.7,1.3,2.8,2.8h1.4c0.5,0,0.9-0.4,0.9-0.9v-4.2
	C112.1-53.2,111.6-53.7,111-53.8z M92.3-54.2c-0.1,0-0.2-0.1-0.2-0.2v-1.8c0-0.5,0.4-0.8,0.8-0.8h5v2.8L92.3-54.2L92.3-54.2z
	 M103.1-52.2h-1.3c-0.1,0-0.2-0.1-0.2-0.2c0-0.1,0.1-0.2,0.2-0.2h1.3c0.1,0,0.2,0.1,0.2,0.2S103.2-52.2,103.1-52.2L103.1-52.2
	L103.1-52.2z M105.8-54.3c0,0-0.1,0.1-0.1,0.1h-7.1v-2.8h2.6c0.7,0,1.3,0.2,1.9,0.6l2.7,2C105.8-54.4,105.8-54.4,105.8-54.3
	L105.8-54.3z"/>
<path class="st11" d="M90-55.2h-1.1c-0.3,0-0.6,0.3-0.6,0.6v4.5c0,0.3,0.3,0.6,0.6,0.6H90c0.3,0,0.6-0.3,0.6-0.6v-4.5
	C90.6-54.9,90.3-55.2,90-55.2z"/>
<path class="st11" d="M95.9-49.8c-1.5,0-2.7,1.2-2.7,2.7s1.2,2.7,2.7,2.7c1.5,0,2.7-1.2,2.7-2.7l0,0C98.6-48.6,97.4-49.8,95.9-49.8z
	 M95.9-45.9c-0.7,0-1.2-0.6-1.2-1.2s0.6-1.2,1.2-1.2s1.2,0.6,1.2,1.2C97.2-46.4,96.6-45.9,95.9-45.9z"/>
<path class="st11" d="M106.7-49.8c-1.5,0-2.7,1.2-2.7,2.7s1.2,2.7,2.7,2.7c1.5,0,2.7-1.2,2.7-2.7l0,0
	C109.3-48.6,108.1-49.8,106.7-49.8z M106.7-45.9c-0.7,0-1.2-0.6-1.2-1.2s0.6-1.2,1.2-1.2s1.2,0.6,1.2,1.2v0
	C107.9-46.4,107.3-45.9,106.7-45.9z"/>
<circle class="st11" cx="95.9" cy="-47.1" r="0.4"/>
<path class="st11" d="M106.7-47.5c-0.2,0-0.4,0.2-0.4,0.4c0,0.2,0.2,0.4,0.4,0.4s0.4-0.2,0.4-0.4l0,0
	C107.1-47.3,106.9-47.5,106.7-47.5z"/>
<path class="st11" d="M111-53.8l-3.8-0.7l-3.5-2.7c-0.7-0.5-1.6-0.8-2.4-0.8H93c-1,0-1.8,0.8-1.8,1.8v7.9c0,0.5,0.4,0.9,0.9,0.9h0.7
	c0.2-1.8,1.8-3,3.5-2.8c1.5,0.2,2.7,1.3,2.8,2.8h4.4c0.2-1.8,1.8-3,3.5-2.8c1.5,0.2,2.7,1.3,2.8,2.8h1.4c0.5,0,0.9-0.4,0.9-0.9v-4.2
	C112.1-53.2,111.6-53.7,111-53.8z M92.3-54.2c-0.1,0-0.2-0.1-0.2-0.2v-1.8c0-0.5,0.4-0.8,0.8-0.8h5v2.8L92.3-54.2L92.3-54.2z
	 M103.1-52.2h-1.3c-0.1,0-0.2-0.1-0.2-0.2c0-0.1,0.1-0.2,0.2-0.2h1.3c0.1,0,0.2,0.1,0.2,0.2S103.2-52.2,103.1-52.2L103.1-52.2
	L103.1-52.2z M105.8-54.3c0,0-0.1,0.1-0.1,0.1h-7.1v-2.8h2.6c0.7,0,1.3,0.2,1.9,0.6l2.7,2C105.8-54.4,105.8-54.4,105.8-54.3
	L105.8-54.3z"/>
<text transform="matrix(0.9997 -2.377000e-02 2.377000e-02 0.9997 118.9547 -35.9714)" class="st12" style="font-family:'VDL-LogoMaru-Regular-90ms-RKSJ-H'; font-size:26.5322px;">女子</text>
<text transform="matrix(0.9997 -2.377000e-02 2.377000e-02 0.9997 118.9547 -35.9714)" class="st15" style="font-family:'VDL-LogoMaru-Regular-90ms-RKSJ-H'; font-size:26.5322px;">女子</text>
<text transform="matrix(0.9997 -2.377000e-02 2.377000e-02 0.9997 118.9547 -35.9714)" class="st16" style="font-family:'VDL-LogoMaru-Regular-90ms-RKSJ-H'; font-size:26.5322px;">女子</text>
<text transform="matrix(0.9997 -2.377000e-02 2.377000e-02 0.9997 118.9547 -35.9714)" class="st16" style="font-family:'VDL-LogoMaru-Regular-90ms-RKSJ-H'; font-size:26.5322px;">女子</text>
<text transform="matrix(1 0 0 1 164.5399 -33.94)" class="st1" style="font-family:'VDL-LogoMaru-Regular-90ms-RKSJ-H'; font-size:8.9706px;">ブ</text>
<text transform="matrix(1 0 0 1 172.8822 -33.94)" class="st1" style="font-family:'VDL-LogoMaru-Regular-90ms-RKSJ-H'; font-size:8.9706px;">ロ</text>
<text transform="matrix(1 0 0 1 181.1356 -33.94)" class="st1" style="font-family:'VDL-LogoMaru-Regular-90ms-RKSJ-H'; font-size:8.9706px;">グ</text>
<text transform="matrix(1 0 0 1 164.5399 -33.94)" class="st2" style="font-family:'VDL-LogoMaru-Regular-90ms-RKSJ-H'; font-size:8.9706px;">ブ</text>
<text transform="matrix(1 0 0 1 172.8822 -33.94)" class="st2" style="font-family:'VDL-LogoMaru-Regular-90ms-RKSJ-H'; font-size:8.9706px;">ロ</text>
<text transform="matrix(1 0 0 1 181.1356 -33.94)" class="st2" style="font-family:'VDL-LogoMaru-Regular-90ms-RKSJ-H'; font-size:8.9706px;">グ</text>
<text transform="matrix(1 0 0 1 164.5399 -33.94)" class="st3" style="font-family:'VDL-LogoMaru-Regular-90ms-RKSJ-H'; font-size:8.9706px;">ブ</text>
<text transform="matrix(1 0 0 1 172.8822 -33.94)" class="st3" style="font-family:'VDL-LogoMaru-Regular-90ms-RKSJ-H'; font-size:8.9706px;">ロ</text>
<text transform="matrix(1 0 0 1 181.1356 -33.94)" class="st3" style="font-family:'VDL-LogoMaru-Regular-90ms-RKSJ-H'; font-size:8.9706px;">グ</text>
<ellipse transform="matrix(0.9906 -0.1368 0.1368 0.9906 10.4613 1.3974)" class="st11" cx="15.4" cy="-75.4" rx="16" ry="8.8"/>
<polygon class="st11" points="31.5,-63.1 23.3,-73.6 19.5,-68.7 "/>
<text transform="matrix(0.9906 -0.1368 0.1368 0.9906 4.932 -69.6365)" class="st17" style="font-family:'KozGoPr6N-Bold-90ms-RKSJ-H'; font-size:11px;">JA11</text>
</svg>
