<!--?xml version="1.0" encoding="utf-8"?-->
<!-- Generator: Adobe Illustrator 18.1.1, SVG Export Plug-In . SVG Version: 6.00 Build 0)  -->

<svg version="1.1" id="_x32_" xmlns="http://www.w3.org/2000/svg" xmlns:xlink="http://www.w3.org/1999/xlink" x="0px" y="0px" viewBox="0 0 512 512" style="width: 32px; height: 32px; opacity: 1;" xml:space="preserve">
<style type="text/css">
	.st0{fill:#4B4B4B;}
</style>
<g>
	<path class="st0" d="M496.156,121.781l-16.855-9.889l-6.768,18.335l-16.848-9.882l-6.769,18.328l-16.856-9.882l-6.753,18.335
		l-16.841-9.889l-6.768,18.32l-16.84-9.882l-7.091,18.43c-0.301-0.512-2.828-8.175-3.143-8.688
		c-0.981-1.509-2.036-2.988-3.157-4.446c-0.747-0.967-1.531-1.897-2.344-2.813c-0.424-0.476-0.835-0.938-1.26-1.377
		c-0.432-0.454-0.849-0.901-1.296-1.34c-0.447-0.446-0.894-0.864-1.348-1.304c-0.447-0.425-0.901-0.842-1.377-1.253
		c-0.922-0.813-1.86-1.619-2.813-2.352c-1.926-1.508-3.912-2.871-5.955-4.116c-23.221-14.035-53.855-11.024-73.911,9.024
		c-2.462,2.462-7.018,6.666-13.186,10.482c-7.618,4.688-17.668,8.797-29.256,8.233c-0.77-0.029-1.568,0.059-2.403,0.198
		c-2.79,0.058-5.53,0.117-8.24,0.176c-12.98,0.249-25.089,0.454-37.095,1.216c-11.273,0.688-22.459,1.904-33.835,4.182
		c-15.208,3.01-30.656,8.006-46.72,15.8c-9.186,4.432-18.576,9.765-28.37,16.13c-26.143,16.98-74.387,61.744-74.387,61.744
		c-4.527,3.764-7.296,9.244-7.633,15.126c-0.337,5.875,1.788,11.632,5.86,15.895l5.362,5.604c7.882,8.226,20.847,8.768,29.389,1.23
		c0,0,26.971-25.447,43.746-38.604c16.79-13.148,30.942-22.356,43.453-28.905c8.365-4.358,16.013-7.53,23.419-9.954
		c9.888-3.223,19.433-5.091,29.96-6.322c6.014-0.681,12.343-1.136,19.126-1.443c5.567-0.256,11.428-0.424,17.668-0.571h0.154
		c0.49,0.014,0.982,0.029,1.487,0.036c36.275,0.696,70.439,32.326,100.971,37.44c30.539,5.12,79.793,6.343,142.643-46.611
		c37.6-31.704,48.727-62.836,48.727-62.836L496.156,121.781z M345.096,199.018c-1.099,2.161-2.556,4.183-4.366,5.992
		c-9.318,9.325-24.438,9.333-33.754,0.015c-2.433-2.439-4.234-5.245-5.392-8.248c-0.498-1.282-0.879-2.616-1.142-3.956
		c-1.495-7.56,0.674-15.705,6.534-21.565c9.317-9.318,24.436-9.325,33.761,0C348.253,178.772,349.696,190.052,345.096,199.018z" style="fill: rgb(75, 75, 75);"></path>
	<path class="st0" d="M272.693,136.974c23.602-23.616,60.03-28.063,88.576-10.804c0.952,0.578,1.898,1.194,2.828,1.824l2.227-0.85
		l-9.889-16.848l18.328-6.754l-9.882-16.848l18.327-6.761l-9.888-16.848l18.327-6.768l-9.874-16.848l18.328-6.776l-9.89-16.855
		L368.309,0c0,0-31.139,11.127-62.842,48.727c-32.539,38.618-44.596,72.087-47.892,99.241c1.377-0.674,2.74-1.399,4.11-2.249
		C266.562,142.695,270.364,139.296,272.693,136.974z" style="fill: rgb(75, 75, 75);"></path>
	<path class="st0" d="M285.776,253.107c5.787,12.746,10.263,25.85,10.519,39.234c0.015,0.506,0.029,0.996,0.044,1.48v0.154
		c-0.146,6.248-0.308,12.108-0.579,17.675c-0.3,6.783-0.754,13.112-1.436,19.126c-1.223,10.52-3.098,20.064-6.321,29.96
		c-2.425,7.406-5.596,15.053-9.963,23.412c-6.534,12.518-15.756,26.67-28.905,43.46c-13.156,16.774-38.596,43.753-38.596,43.753
		c-7.538,8.534-6.995,21.507,1.238,29.381l5.603,5.362c4.256,4.072,10.006,6.197,15.889,5.86c5.882-0.337,11.361-3.106,15.126-7.64
		c0,0,44.757-48.237,61.744-74.373c6.366-9.801,11.691-19.2,16.13-28.378c7.794-16.056,12.79-31.52,15.808-46.712
		c2.271-11.383,3.487-22.569,4.183-33.842c0.754-12.006,0.959-24.115,1.208-37.096c0.058-2.71,0.11-5.449,0.183-8.24
		c0.139-0.835,0.22-1.64,0.183-2.403c-0.088-1.978-0.044-3.912,0.118-5.801c-10.93,0.036-20.723-1.084-29.301-2.52
		C307.605,263.099,296.822,258.557,285.776,253.107z" style="fill: rgb(75, 75, 75);"></path>
</g>
</svg>
