<svg id="_2" data-name="2" xmlns="http://www.w3.org/2000/svg" width="512" height="512" viewBox="0 0 512 512"><defs><style>.cls-1{fill:#001156;}</style></defs><path class="cls-1" d="M498.842,256c0-1.092-.065-2.169-.08-3.277q6.627-1.773,13.238-3.739a258.427,258.427,0,0,0-3.52-36.002c-4.556-.445-9.136-.809-13.708-1.124a241.41408,241.41408,0,0,0-15.666-51.838c3.609-2.768,7.186-5.632,10.762-8.529a258.06876,258.06876,0,0,0-17.099-31.882c-4.369,1.343-8.731,2.767-13.085,4.232A243.6037,243.6037,0,0,0,425.221,81.9c2.274-3.965,4.636-7.858,6.821-11.896a262.77125,262.77125,0,0,0-27.934-22.957c-3.544,2.929-6.886,6.004-10.325,8.999a240.9151,240.9151,0,0,0-47.889-25.628q.8985-6.822,1.594-13.676a256.02458,256.02458,0,0,0-34.65-10.504c-2.153,4.079-4.224,8.133-6.24,12.219a244.13633,244.13633,0,0,0-50.599-5.308c-1.158,0-2.29.065-3.447.097C251.355,8.82,250.279,4.394,248.968,0a258.40689,258.40689,0,0,0-35.985,3.52c-.445,4.564-.81,9.127-1.125,13.708a241.88411,241.88411,0,0,0-51.837,15.65q-4.188-5.4015-8.529-10.746a256.6635,256.6635,0,0,0-31.883,17.099c1.343,4.369,2.768,8.731,4.232,13.085A243.22656,243.22656,0,0,0,81.9,86.779c-3.965-2.282-7.857-4.653-11.895-6.821a261.07738,261.07738,0,0,0-22.957,27.934c2.921,3.544,6.004,6.894,8.998,10.342a241.0389,241.0389,0,0,0-25.635,47.864q-6.81-.861-13.652-1.578a255.3066,255.3066,0,0,0-10.52,34.634c4.078,2.152,8.14,4.232,12.227,6.247A243.59361,243.59361,0,0,0,13.15,256c0,1.092.064,2.193.072,3.277C8.82,260.459,4.394,261.705,0,263.031a258.40148,258.40148,0,0,0,3.513,35.977q6.834.657,13.715,1.134a242.297,242.297,0,0,0,15.65,51.837c-3.601,2.776-7.17,5.624-10.746,8.521A252.97328,252.97328,0,0,0,39.23,392.391q6.555-2.004,13.069-4.233A243.98521,243.98521,0,0,0,86.779,430.1c-2.282,3.965-4.653,7.848-6.821,11.878a257.38478,257.38478,0,0,0,27.934,22.974c3.544-2.937,6.886-6.012,10.325-9.006a241.20569,241.20569,0,0,0,47.881,25.643c-.591,4.556-1.134,9.112-1.586,13.676a255.79111,255.79111,0,0,0,34.65,10.496q3.204-6.117,6.238-12.227a243.59587,243.59587,0,0,0,50.6,5.309c1.157,0,2.29-.065,3.439-.073,1.206,4.402,2.266,8.828,3.577,13.23a258.12385,258.12385,0,0,0,35.985-3.512q.6675-6.846,1.141-13.716a240.38261,240.38261,0,0,0,51.838-15.666c2.768,3.617,5.616,7.186,8.512,10.762a255.096,255.096,0,0,0,31.899-17.098q-2.00248-6.543-4.232-13.085A243.242,243.242,0,0,0,430.1,425.221c3.965,2.29,7.85,4.644,11.888,6.821a258.9989,258.9989,0,0,0,22.957-27.934c-2.937-3.544-5.996-6.886-8.99-10.326a242.50956,242.50956,0,0,0,25.636-47.889q6.834.89849,13.667,1.57a257.23638,257.23638,0,0,0,10.504-34.626q-6.11852-3.204-12.228-6.238A243.53077,243.53077,0,0,0,498.842,256ZM256,410.793A154.7965,154.7965,0,1,1,410.809,256,154.79233,154.79233,0,0,1,256,410.793Z"/><path class="cls-1" d="M256,270.962A14.966,14.966,0,1,0,241.022,256,14.95853,14.95853,0,0,0,256,270.962Z"/><path class="cls-1" d="M156.136,199.687a9.81486,9.81486,0,0,0,6.15,5.907l53.367,17.342A16.31682,16.31682,0,0,0,237,207.407V151.345a9.80239,9.80239,0,0,0-12.041-9.532s.802-.606-4.588,1.085a118.8629,118.8629,0,0,0-61.572,45.218c-3.035,4.354-1.861,3.107-1.861,3.107A9.72046,9.72046,0,0,0,156.136,199.687Z"/><path class="cls-1" d="M214.391,269.53a16.278,16.278,0,0,0-10.463-10.479l-53.327-17.325a9.77955,9.77955,0,0,0-12.777,8.504s-.34-.946-.388,4.71a118.81031,118.81031,0,0,0,23.96,72.52c3.204,4.241,2.379,2.744,2.379,2.744a9.78389,9.78389,0,0,0,15.318-.656l32.967-45.396A16.24752,16.24752,0,0,0,214.391,269.53Z"/><path class="cls-1" d="M269.198,306.47a16.33393,16.33393,0,0,0-26.404,0l-32.943,45.356a9.78545,9.78545,0,0,0,4.143,14.792s-1.011.025,4.346,1.82a118.79987,118.79987,0,0,0,76.388-.396c5.025-1.724,3.334-1.4,3.334-1.4a9.79823,9.79823,0,0,0,4.11-14.777Z"/><path class="cls-1" d="M361.448,241.709l-53.375,17.342a16.30335,16.30335,0,0,0-8.148,25.093L332.883,329.5a9.76665,9.76665,0,0,0,15.335.632s-.283.963,3.084-3.576a118.87424,118.87424,0,0,0,23.224-72.764c-.089-5.3-.307-3.593-.307-3.593a9.76634,9.76634,0,0,0-12.771-8.49Z"/><path class="cls-1" d="M281.708,220.613a16.393,16.393,0,0,0,14.63,2.323l53.327-17.342a9.78586,9.78586,0,0,0,5.332-14.395s.834.567-2.452-4.03a118.77312,118.77312,0,0,0-62.025-44.596c-5.065-1.537-3.528-.809-3.528-.809a9.78614,9.78614,0,0,0-12,9.533v56.11A16.32319,16.32319,0,0,0,281.708,220.613Z"/></svg>