<?xml version="1.0" encoding="utf-8"?>
<!-- Generator: Adobe Illustrator 24.0.2, SVG Export Plug-In . SVG Version: 6.00 Build 0)  -->
<svg version="1.1" id="レイヤー_1" xmlns="http://www.w3.org/2000/svg" xmlns:xlink="http://www.w3.org/1999/xlink" x="0px"
	 y="0px" viewBox="0 0 500 60" style="enable-background:new 0 0 500 60;" xml:space="preserve">
<style type="text/css">
	.st0{fill:#FFFFFF;}
	.st1{opacity:0.6;fill:#FF4DBF;enable-background:new    ;}
	.st2{fill:#FF4DBF;}
</style>
<title>アートボード 5</title>
<title>アートボード 5</title>
<path class="st0" d="M1090,122L0,258v-69.2c0,0,93.4-31.7,157.2-32.6c63.8-0.8,128.9-0.4,185.8,11.6c93.3,21,232.4,1.4,362.1-22.2
	S1090,122,1090,122z"/>
<path class="st1" d="M1090,122L0,258v-69.2c0,0,93.4-31.7,157.2-32.6c63.8-0.8,128.9-0.4,185.8,11.6c93.3,21,232.4,1.4,362.1-22.2
	S1090,122,1090,122z"/>
<polygon class="st0" points="0,258 1090,122 1090,258 "/>
<path class="st2" d="M500,0c0,0-105.5,2.5-137.1,5.3s-37.8,7.5-80,12.9c-17.8,2.3-20.2,3.7-35.5,3.6s-19.4-0.5-42.5-1.2
	C164.9,19.2,141,15,86.8,15S0,30,0,30V0H500z"/>
<path class="st0" d="M0,60"/>
<polygon class="st0" points="0,60 500,60 500,0 "/>
</svg>
