<?xml version="1.0" encoding="utf-8"?>
<!-- Generator: Adobe Illustrator 24.0.2, SVG Export Plug-In . SVG Version: 6.00 Build 0)  -->
<svg version="1.1" id="レイヤー_1" xmlns="http://www.w3.org/2000/svg" xmlns:xlink="http://www.w3.org/1999/xlink" x="0px"
	 y="0px" viewBox="0 0 231 60" style="enable-background:new 0 0 231 60;" xml:space="preserve">
<style type="text/css">
	.st0{fill:#FF4DBF;}
	.st1{fill:#FFFFFF;}
</style>
<title>アートボード 5</title>
<path class="st0" d="M10.6-23.4l231-60c0,0-49.3,2.3-61.5,3.3c-17.4,1.9-32.2,10.2-32.2,10.2s-11,6.8-30.7,9.9s-39.7-2.3-39.7-2.3
	s-23.2-4.9-38.3-2.6C24-62.6,10.6-53.6,10.6-53.6V-23.4z"/>
<polygon class="st1" points="0,60 231,0 231,60 "/>
<path class="st0" d="M231-0.2c0,0-79.5,2.2-108.2,13.4S90.7,26.4,51.5,22S0,28.3,0,28.3V-0.2H231z"/>
</svg>
