<?xml version="1.0" encoding="utf-8"?>
<!-- Generator: Adobe Illustrator 24.0.2, SVG Export Plug-In . SVG Version: 6.00 Build 0)  -->
<svg version="1.1" id="レイヤー_1" xmlns="http://www.w3.org/2000/svg" xmlns:xlink="http://www.w3.org/1999/xlink" x="0px"
	 y="0px" viewBox="0 0 1090 136" style="enable-background:new 0 0 1090 136;" xml:space="preserve">
<style type="text/css">
	.st0{fill:#FFFFFF;enable-background:new    ;}
	.st1{opacity:0.6;fill:#FF4DBF;enable-background:new    ;}
	.st2{fill:#FF4DBF;}
</style>
<title>アートボード 5</title>
<title>アートボード 5</title>
<path class="st0" d="M1090,0L0,136V66.8c0,0,93.4-31.7,157.2-32.6c63.8-0.8,128.9-0.4,185.8,11.6c93.3,21,232.4,1.4,362.1-22.2
	S1090,0,1090,0z"/>
<path class="st1" d="M1090,0L0,136V66.8c0,0,93.4-31.7,157.2-32.6c63.8-0.8,128.9-0.4,185.8,11.6c93.3,21,232.4,1.4,362.1-22.2
	S1090,0,1090,0z"/>
<polygon class="st0" points="0,136 1090,0 1090,136 "/>
<path class="st2" d="M973.3-291c0,0-230,5.6-298.9,11.7S500-250.5,500-250.5s-57.6,12.1-168.3,12.1s-141-19.2-259.2-19.2
	s-189.2,33.4-189.2,33.4V-291H973.3z"/>
</svg>
