<svg id="レイヤー_1" data-name="レイヤー 1" xmlns="http://www.w3.org/2000/svg" width="182" height="84" viewBox="0 0 182 84"><defs><style>.cls-1,.cls-2{fill:none;stroke-linecap:round;stroke-linejoin:round;}.cls-1{stroke:#f9a5e0;stroke-width:2px;}.cls-2{stroke:#ff4dbf;stroke-width:12px;}.cls-3{fill:#fff;}.cls-4{fill:#ff4dbf;}</style></defs><path class="cls-1" d="M61.54248,44.69394c20,0,22-40,29-40s7,34,30,40"/><path class="cls-2" d="M107.32568,76.066l-2.85937-1.92188a8.81675,8.81675,0,0,1-2.34375-6.14062,11.83537,11.83537,0,0,1,4.45312-7.54688,6.00235,6.00235,0,0,1,3.32813-.9375l3.32812.9375.23438-.70312V57.36288l.23437-.23437V53.84726a39.65679,39.65679,0,0,1,3.28125-12.32813l1.92188-.23437,1.17187.9375v1.92187a28.07113,28.07113,0,0,0-3.09375,11.10938v3.04687l-.46875,1.21875v3.51563l-.23437.23437v4.96875l.70312,2.625v2.34375l-.9375,1.17188h-.70312l-1.40625-.70313L110.13818,76.066Zm4.6875-4.5,1.21875-.9375V68.23788l-.23437-.23437V63.73788l-2.39063-1.40625-3.04687,2.15625a11.82366,11.82366,0,0,0-1.92188,5.67188l1.17188,2.34375,1.6875.70312Z"/><path class="cls-2" d="M133.29443,76.25351a7.13023,7.13023,0,0,1-3.79687-1.6875l-1.64063-2.8125V66.08163a21.04824,21.04824,0,0,1,4.96875-9.46875,7.42313,7.42313,0,0,1,3.75-.9375l2.39063,1.40625a21.286,21.286,0,0,1,3.79687,9.46875,12.03634,12.03634,0,0,1-4.5,7.54688A8.72762,8.72762,0,0,1,133.29443,76.25351Zm1.875-3.79688a9.194,9.194,0,0,0,4.03125-4.73437l.23438-.70313V64.15976l-2.10938-5.20313h-1.6875l-2.34375,2.39063a42.86134,42.86134,0,0,0-2.15625,4.5v2.8125l-.23437,1.64062.98437,2.625,1.17188.46875Z"/><path class="cls-2" d="M153.73389,63.59726l-2.0625-1.82813L151.437,61.066V54.45663l.23438-1.17187-.23438-.89063.70313-4.35937V44.61288l1.59375-.70312,1.59375.9375.46875,1.82812-.70313,2.29688v2.48437l-.46875,2.53125v3.65625l-.1875.23438v2.95312l.1875,1.17188-.42187,1.35937Zm-.70313,11.39062L151.437,73.62851V72.03476l.70313-1.82813,2.48437-.70312a5.69519,5.69519,0,0,1,.9375,3.23437l-1.125,2.0625Z"/><path class="cls-2" d="M168.22217,68.28476l-1.64063-1.82813-.9375-5.15625q3.04688-8.62353,6.75-17.01562l-2.34375-1.17188-.65625.23438-.9375-.23438-.23437.23438H165.644l-1.17187-1.125v-.70313l1.64062-.9375h3.46875a10.40212,10.40212,0,0,1,5.39063,2.53125l.46875.70313v2.57812a66.51415,66.51415,0,0,0-6.51563,17.25l.89063,4.17188Zm3,7.6875-2.0625-1.125-.23438-2.10938.89063-1.40625h2.10937a2.88776,2.88776,0,0,1,.9375,2.8125l-.70312,1.59375Z"/><path class="cls-3" d="M107.32568,76.066l-2.85937-1.92188a8.81675,8.81675,0,0,1-2.34375-6.14062,11.83537,11.83537,0,0,1,4.45312-7.54688,6.00235,6.00235,0,0,1,3.32813-.9375l3.32812.9375.23438-.70312V57.36288l.23437-.23437V53.84726a39.65679,39.65679,0,0,1,3.28125-12.32813l1.92188-.23437,1.17187.9375v1.92187a28.07113,28.07113,0,0,0-3.09375,11.10938v3.04687l-.46875,1.21875v3.51563l-.23437.23437v4.96875l.70312,2.625v2.34375l-.9375,1.17188h-.70312l-1.40625-.70313L110.13818,76.066Zm4.6875-4.5,1.21875-.9375V68.23788l-.23437-.23437V63.73788l-2.39063-1.40625-3.04687,2.15625a11.82366,11.82366,0,0,0-1.92188,5.67188l1.17188,2.34375,1.6875.70312Z"/><path class="cls-3" d="M133.29443,76.25351a7.13023,7.13023,0,0,1-3.79687-1.6875l-1.64063-2.8125V66.08163a21.04824,21.04824,0,0,1,4.96875-9.46875,7.42313,7.42313,0,0,1,3.75-.9375l2.39063,1.40625a21.286,21.286,0,0,1,3.79687,9.46875,12.03634,12.03634,0,0,1-4.5,7.54688A8.72762,8.72762,0,0,1,133.29443,76.25351Zm1.875-3.79688a9.194,9.194,0,0,0,4.03125-4.73437l.23438-.70313V64.15976l-2.10938-5.20313h-1.6875l-2.34375,2.39063a42.86134,42.86134,0,0,0-2.15625,4.5v2.8125l-.23437,1.64062.98437,2.625,1.17188.46875Z"/><path class="cls-3" d="M153.73389,63.59726l-2.0625-1.82813L151.437,61.066V54.45663l.23438-1.17187-.23438-.89063.70313-4.35937V44.61288l1.59375-.70312,1.59375.9375.46875,1.82812-.70313,2.29688v2.48437l-.46875,2.53125v3.65625l-.1875.23438v2.95312l.1875,1.17188-.42187,1.35937Zm-.70313,11.39062L151.437,73.62851V72.03476l.70313-1.82813,2.48437-.70312a5.69519,5.69519,0,0,1,.9375,3.23437l-1.125,2.0625Z"/><path class="cls-3" d="M168.22217,68.28476l-1.64063-1.82813-.9375-5.15625q3.04688-8.62353,6.75-17.01562l-2.34375-1.17188-.65625.23438-.9375-.23438-.23437.23438H165.644l-1.17187-1.125v-.70313l1.64062-.9375h3.46875a10.40212,10.40212,0,0,1,5.39063,2.53125l.46875.70313v2.57812a66.51415,66.51415,0,0,0-6.51563,17.25l.89063,4.17188Zm3,7.6875-2.0625-1.125-.23438-2.10938.89063-1.40625h2.10937a2.88776,2.88776,0,0,1,.9375,2.8125l-.70312,1.59375Z"/><path class="cls-2" d="M36.46875,76.29062l-1.54687-1.17188V73.57187l.79687-3V65.83749L36,65.55624V50.13437l-1.96875-6.75-.60937-.5625h-5.0625l-.28125.28125H23.48438l-3.46875.84375H16.96875l-.28125.28125H13.59375l-1.5,10.21875v3.42187l-.5625,1.92188v3.89062l-.28125.28125v4.45313l.28125.28125v5.15625a1.37306,1.37306,0,0,1-1.45312.51562L8.29688,72.44687,8.39063,72.4V67.85312l-.28125-.23438v-2.8125L8.625,61.66562V57.4l1.73438-11.67187V42.63437l.42187-.9375h3.23438l.89062.28125,7.5-1.125h2.8125l1.6875-.28125L28.875,40.9l.28125-.32812h6.98438L37.5,41.69687,39.14063,50.275v3.1875l.32812,1.03125-.42187,1.3125.42187.42188v4.26562l-.32812.23438v8.0625l-.23438.23437v3.79688l-1.3125,3.23437Zm-18.75-24.09375L16.5,51.54062l-.51562-1.3125a3.5857,3.5857,0,0,1,2.10937-.5625h5.625L24,49.43124h2.90625l.28125-.32812h3.75L32.34375,50.275v.46875a9.30291,9.30291,0,0,1-4.21875.9375l-1.07812-.375-.375.375H23.15625l-2.53125.51563Zm1.6875,16.5-1.64062-1.35938v-.84375l.89062-6.32812L18.1875,56.65l1.54688-.42187,1.07812.5625h4.82813l.28125-.23438h2.53125l1.59375.89063L30.32813,59.65l-.28125.32813v3.09375l.28125,1.92187-.98438,2.39063-1.3125.1875-2.67187-.51563A16.14261,16.14261,0,0,1,19.40625,68.69687Zm6.70313-4.03125a7.746,7.746,0,0,0,1.03125-5.20313,6.002,6.002,0,0,0-3.75-.70312l-1.35938.60937-.51562.60938v4.64062l2.85937.70313Z"/><path class="cls-2" d="M77.86328,77.04062l-1.54687-1.21875-.84375-1.5L73.832,73.525l-.23437-.70312-1.78125-1.125L71.207,70.33749l1.21875-4.3125-2.39062-.46875-2.20313.5625a19.12469,19.12469,0,0,1-7.6875-6.79687H58.78516l-.65625.65625v3.14062L57.89453,63.4v5.20313l-.28125.9375.28125,1.40625-.28125.79687.28125,2.57813-.84375.98437h-.70312l-1.875-1.64062v-.5625l.28125-.23438V68.60312l.28125-.32813V63.30624h-1.5q-2.67187,5.15625-4.59375,9.89063l-1.59375.1875L45.61328,71.65l9.51563-18.46875H53.01953l-3.375.51563-1.07812-1.45313a33.01031,33.01031,0,0,1,7.03125-2.53125l.5625-.46875v-3.75l1.875-.42187,1.26562.84375.23438,1.3125L59.207,48.82187l.98438.9375h3.79687l1.54688.98437.1875,1.125a2.23507,2.23507,0,0,1-2.25.42188l-.32813-.23438H59.67578l-1.03125,2.95313,6.98438,6.9375.9375,1.6875h2.34375l5.15625-.9375,1.125-2.57813.42187-.14062,2.15625.9375.5625,1.45312,2.0625.42188A5.44782,5.44782,0,0,0,81.84766,59.65h1.82812l.79688.60938.32812,1.875,3.28125.32812,1.59375-.28125,1.59375.9375.1875.65625-.5625.70313-1.5.28125-.28125-.32813h-4.5a79.666,79.666,0,0,0-3.23437,9.42188l3.04687.60937,1.26563-.23437,1.78125,1.07812v.32813l-1.03125.79687H83.91016l-3.09375-.5625A3.38219,3.38219,0,0,1,77.86328,77.04062Zm-5.4375-18.60938-1.875-1.35937-.1875-.79688.32813-.28125h3.09375l1.5-.70312.42187-2.90625-2.625-.32813-3.28125.79688a2.375,2.375,0,0,1-1.45312-1.96875l7.5-1.07813-.375-2.25q-3.75074.5625-4.35938-1.03125a34.32813,34.32813,0,0,1,4.73438-1.92187l.375-3.28125-.65625-.60938h-3.5625L70.832,38.74374l.98438-.46875H74.957l1.40625-1.17187.5625-1.78125,1.17188-.23438,1.35937.70313.79688,2.01562,1.40625.70313H85.082l1.59375,1.125v.98437l-2.15625.60938A7.64123,7.64123,0,0,0,80.25391,40.15,3.23658,3.23658,0,0,0,79.082,43.9l1.78125,1.125h3.14063l2.48437.98438a16.30194,16.30194,0,0,0,2.48438,3.70312,13.35945,13.35945,0,0,1-2.15625,1.07813l-1.26563,2.53125v2.48437l-.70312.28125-.5625,1.45313-.32813.09375a6.83547,6.83547,0,0,0-4.45312-.79688Zm6.09375,14.15625V71.65a15.12506,15.12506,0,0,0,1.96875-6.46875l-2.01562-.75-2.10938.70313-1.92187,5.625A3.787,3.787,0,0,0,78.51953,72.58749Zm3.5625-18.75.70313-2.29687-2.4375-.79688a3.28317,3.28317,0,0,0-1.78125,3.84375h2.29687Zm1.26563-5.0625v-1.3125l-2.34375-1.21875-1.54688.84375-.70312,1.73438,2.8125.42187Z"/><path class="cls-3" d="M36.46875,76.29062l-1.54687-1.17188V73.57187l.79687-3V65.83749L36,65.55624V50.13437l-1.96875-6.75-.60937-.5625h-5.0625l-.28125.28125H23.48438l-3.46875.84375H16.96875l-.28125.28125H13.59375l-1.5,10.21875v3.42187l-.5625,1.92188v3.89062l-.28125.28125v4.45313l.28125.28125v5.15625a1.37306,1.37306,0,0,1-1.45312.51562L8.29688,72.44687,8.39063,72.4V67.85312l-.28125-.23438v-2.8125L8.625,61.66562V57.4l1.73438-11.67187V42.63437l.42187-.9375h3.23438l.89062.28125,7.5-1.125h2.8125l1.6875-.28125L28.875,40.9l.28125-.32812h6.98438L37.5,41.69687,39.14063,50.275v3.1875l.32812,1.03125-.42187,1.3125.42187.42188v4.26562l-.32812.23438v8.0625l-.23438.23437v3.79688l-1.3125,3.23437Zm-18.75-24.09375L16.5,51.54062l-.51562-1.3125a3.5857,3.5857,0,0,1,2.10937-.5625h5.625L24,49.43124h2.90625l.28125-.32812h3.75L32.34375,50.275v.46875a9.30291,9.30291,0,0,1-4.21875.9375l-1.07812-.375-.375.375H23.15625l-2.53125.51563Zm1.6875,16.5-1.64062-1.35938v-.84375l.89062-6.32812L18.1875,56.65l1.54688-.42187,1.07812.5625h4.82813l.28125-.23438h2.53125l1.59375.89063L30.32813,59.65l-.28125.32813v3.09375l.28125,1.92187-.98438,2.39063-1.3125.1875-2.67187-.51563A16.14261,16.14261,0,0,1,19.40625,68.69687Zm6.70313-4.03125a7.746,7.746,0,0,0,1.03125-5.20313,6.002,6.002,0,0,0-3.75-.70312l-1.35938.60937-.51562.60938v4.64062l2.85937.70313Z"/><path class="cls-3" d="M77.86328,77.04062l-1.54687-1.21875-.84375-1.5L73.832,73.525l-.23437-.70312-1.78125-1.125L71.207,70.33749l1.21875-4.3125-2.39062-.46875-2.20313.5625a19.12469,19.12469,0,0,1-7.6875-6.79687H58.78516l-.65625.65625v3.14062L57.89453,63.4v5.20313l-.28125.9375.28125,1.40625-.28125.79687.28125,2.57813-.84375.98437h-.70312l-1.875-1.64062v-.5625l.28125-.23438V68.60312l.28125-.32813V63.30624h-1.5q-2.67187,5.15625-4.59375,9.89063l-1.59375.1875L45.61328,71.65l9.51563-18.46875H53.01953l-3.375.51563-1.07812-1.45313a33.01031,33.01031,0,0,1,7.03125-2.53125l.5625-.46875v-3.75l1.875-.42187,1.26562.84375.23438,1.3125L59.207,48.82187l.98438.9375h3.79687l1.54688.98437.1875,1.125a2.23507,2.23507,0,0,1-2.25.42188l-.32813-.23438H59.67578l-1.03125,2.95313,6.98438,6.9375.9375,1.6875h2.34375l5.15625-.9375,1.125-2.57813.42187-.14062,2.15625.9375.5625,1.45312,2.0625.42188A5.44782,5.44782,0,0,0,81.84766,59.65h1.82812l.79688.60938.32812,1.875,3.28125.32812,1.59375-.28125,1.59375.9375.1875.65625-.5625.70313-1.5.28125-.28125-.32813h-4.5a79.666,79.666,0,0,0-3.23437,9.42188l3.04687.60937,1.26563-.23437,1.78125,1.07812v.32813l-1.03125.79687H83.91016l-3.09375-.5625A3.38219,3.38219,0,0,1,77.86328,77.04062Zm-5.4375-18.60938-1.875-1.35937-.1875-.79688.32813-.28125h3.09375l1.5-.70312.42187-2.90625-2.625-.32813-3.28125.79688a2.375,2.375,0,0,1-1.45312-1.96875l7.5-1.07813-.375-2.25q-3.75074.5625-4.35938-1.03125a34.32813,34.32813,0,0,1,4.73438-1.92187l.375-3.28125-.65625-.60938h-3.5625L70.832,38.74374l.98438-.46875H74.957l1.40625-1.17187.5625-1.78125,1.17188-.23438,1.35937.70313.79688,2.01562,1.40625.70313H85.082l1.59375,1.125v.98437l-2.15625.60938A7.64123,7.64123,0,0,0,80.25391,40.15,3.23658,3.23658,0,0,0,79.082,43.9l1.78125,1.125h3.14063l2.48437.98438a16.30194,16.30194,0,0,0,2.48438,3.70312,13.35945,13.35945,0,0,1-2.15625,1.07813l-1.26563,2.53125v2.48437l-.70312.28125-.5625,1.45313-.32813.09375a6.83547,6.83547,0,0,0-4.45312-.79688Zm6.09375,14.15625V71.65a15.12506,15.12506,0,0,0,1.96875-6.46875l-2.01562-.75-2.10938.70313-1.92187,5.625A3.787,3.787,0,0,0,78.51953,72.58749Zm3.5625-18.75.70313-2.29687-2.4375-.79688a3.28317,3.28317,0,0,0-1.78125,3.84375h2.29687Zm1.26563-5.0625v-1.3125l-2.34375-1.21875-1.54688.84375-.70312,1.73438,2.8125.42187Z"/><ellipse class="cls-4" cx="91" cy="7.19394" rx="4.5" ry="5" transform="matrix(0.01745, -0.99985, 0.99985, 0.01745, 82.21899, 98.05453)"/></svg>