<!--?xml version="1.0" encoding="utf-8"?-->
<!-- Generator: Adobe Illustrator 15.1.0, SVG Export Plug-In . SVG Version: 6.00 Build 0)  -->

<svg version="1.1" id="_x32_" xmlns="http://www.w3.org/2000/svg" xmlns:xlink="http://www.w3.org/1999/xlink" x="0px" y="0px" width="512px" height="512px" viewBox="0 0 512 512" style="width: 256px; height: 256px; opacity: 1;" xml:space="preserve">
<style type="text/css">

	.st0{fill:#4B4B4B;}

</style>
<g>
	<path class="st0" d="M35.938,171.641H12.734C5.703,171.641,0,177.344,0,184.375v96.578c0,7.031,5.703,12.734,12.734,12.734h23.203
		c7.031,0,12.734-5.703,12.734-12.734v-96.578C48.672,177.344,42.969,171.641,35.938,171.641z" style="fill: rgb(75, 75, 75);"></path>
	<path class="st0" d="M164.266,287.438c-31.703,0-57.484,25.781-57.484,57.484c0,31.688,25.781,57.469,57.484,57.469
		s57.469-25.781,57.469-57.469C221.734,313.219,195.969,287.438,164.266,287.438z M164.266,371.406
		c-14.625,0-26.484-11.859-26.484-26.484c0-14.641,11.859-26.484,26.484-26.484c14.609,0,26.484,11.844,26.484,26.484
		C190.75,359.547,178.875,371.406,164.266,371.406z" style="fill: rgb(75, 75, 75);"></path>
	<path class="st0" d="M394.969,287.438c-31.703,0-57.484,25.781-57.484,57.484c0,31.688,25.781,57.469,57.484,57.469
		c31.688,0,57.469-25.781,57.469-57.469C452.438,313.219,426.656,287.438,394.969,287.438z M394.969,371.406
		c-14.625,0-26.5-11.859-26.5-26.484c0-14.641,11.875-26.484,26.5-26.484s26.469,11.844,26.469,26.484
		C421.438,359.547,409.594,371.406,394.969,371.406z" style="fill: rgb(75, 75, 75);"></path>
	<circle class="st0" cx="164.266" cy="344.922" r="9.078" style="fill: rgb(75, 75, 75);"></circle>
	<path class="st0" d="M394.969,335.844c-5.031,0-9.094,4.063-9.094,9.078s4.063,9.078,9.094,9.078c5,0,9.078-4.063,9.078-9.078
		S399.969,335.844,394.969,335.844z" style="fill: rgb(75, 75, 75);"></path>
	<path class="st0" d="M488.594,200.234l-81.953-15.859l-75.313-57.141c-15.078-11.438-33.484-17.625-52.406-17.625H100.234
		c-21.281,0-38.547,17.25-38.547,38.531v169.906c0,10.641,8.641,19.266,19.281,19.266h15.156
		c3.797-34.25,32.906-60.969,68.141-60.969s64.344,26.719,68.141,60.969h75.688h18.719c3.813-34.25,32.906-60.969,68.156-60.969
		c35.234,0,64.344,26.719,68.125,60.969h29.641c10.641,0,19.266-8.625,19.266-19.266v-89.438
		C512,214.766,502.188,202.859,488.594,200.234z M86.906,191.172c-2.656,0-4.813-2.156-4.813-4.813v-38.219
		c0-10,8.141-18.141,18.141-18.141h106.469v61.172H86.906z M317.625,235.953h-27c-1.938,0-3.5-1.563-3.5-3.5
		c0-1.922,1.563-3.5,3.5-3.5h27c1.938,0,3.5,1.578,3.5,3.5C321.125,234.391,319.563,235.953,317.625,235.953z M377,189.531
		c-0.344,0.984-1.25,1.641-2.281,1.641H222.563V130h56.359c14.391,0,28.609,4.781,40.078,13.469l57.156,43.375
		C377,187.469,377.313,188.563,377,189.531z" style="fill: rgb(75, 75, 75);"></path>
</g>
</svg>
