<!--?xml version="1.0" encoding="utf-8"?-->
<!-- Generator: Adobe Illustrator 18.1.1, SVG Export Plug-In . SVG Version: 6.00 Build 0)  -->

<svg version="1.1" id="_x32_" xmlns="http://www.w3.org/2000/svg" xmlns:xlink="http://www.w3.org/1999/xlink" x="0px" y="0px" viewBox="0 0 512 512" style="width: 256px; height: 256px; opacity: 1;" xml:space="preserve">
<style type="text/css">
	.st0{fill:#4B4B4B;}
</style>
<g>
	<path class="st0" d="M296.433,263.353c-0.024-22.341-18.109-40.418-40.433-40.442c-22.324,0.024-40.409,18.101-40.433,40.442
		c0.024,22.299,18.109,40.384,40.433,40.425C278.324,303.737,296.409,285.652,296.433,263.353z" style="fill: rgb(75, 75, 75);"></path>
	<path class="st0" d="M437.029,74.983c0,0,0,0-0.008-0.008C390.819,28.724,326.597,0,256.057,0c-0.048,0-0.065,0-0.114,0
		c-0.074,0-0.139,0.008-0.213,0.008c-0.041,0-0.033,0-0.074,0C185.223,0.082,121.107,28.789,74.971,74.983
		C28.727,121.178,0.004,185.408,0.004,256.004c0,70.588,28.715,134.827,74.975,181.014c45.719,45.777,109.114,74.336,178.811,74.926
		l0.164,0.057H256c0.082,0,0.106-0.008,0.18-0.008c0.049,0,0.049,0,0.082,0c0.114,0,0.212-0.008,0.303-0.016
		c70.343-0.131,134.376-28.838,180.464-74.958c46.244-46.187,74.967-110.425,74.967-181.014
		C511.996,185.416,483.273,121.185,437.029,74.983z M421.621,421.608c-42.308,42.324-100.99,68.6-165.564,68.6
		c-0.024,0-0.033,0-0.057,0h-0.016c-0.008,0-0.017,0-0.017,0h-0.024c-64.582,0-123.256-26.268-165.555-68.592
		c-42.332-42.299-68.6-100.989-68.6-165.612c0-64.631,26.268-123.321,68.592-165.612C132.589,48.15,191.09,21.923,255.493,21.8
		l1.088,0.106l0.434-0.09c64.197,0.262,122.511,26.448,164.598,68.568l7.708-7.701l-7.7,7.708
		c42.323,42.291,68.591,100.981,68.591,165.612S463.944,379.326,421.621,421.608z" style="fill: rgb(75, 75, 75);"></path>
	<path class="st0" d="M159.896,286.855c-12.267-2.348-23.421-3.552-33.346-3.552c-13.208,0.033-24.337,2.021-33.11,7.185
		c-4.362,2.594-8.093,6.106-10.638,10.474c-2.553,4.362-3.805,9.452-3.789,14.706c0,5.287,1.186,10.761,3.364,16.489l0.081,0.213
		l0.09,0.196c9.525,21.555,22.962,40.981,39.427,57.462c15.393,15.376,33.354,28.102,53.208,37.496l0.122,0.048l0.131,0.065
		c7.619,3.29,14.542,5.033,21.072,5.041c6.121,0.033,11.906-1.669,16.563-4.861c7.037-4.828,11.194-12.185,13.902-20.262
		c2.709-8.134,4.068-17.34,4.82-27.184l-8.354-0.63l8.354,0.622c0.197-2.627,0.304-5.311,0.304-8.06
		c-0.008-16.416-3.765-34.975-14.943-51.08C206.025,305.095,187.335,292.035,159.896,286.855z M215.084,379.112
		c-0.868,12.054-2.962,22.34-6.228,28.494c-1.612,3.093-3.371,5.098-5.204,6.342c-1.85,1.228-3.886,1.948-7.144,1.972
		c-3.405,0.016-8.175-0.974-14.272-3.617c-18.052-8.543-34.394-20.13-48.412-34.124c-14.958-14.975-27.152-32.618-35.834-52.144
		c-1.58-4.198-2.226-7.692-2.218-10.368c0.008-2.734,0.573-4.623,1.514-6.26c1.4-2.389,4.018-4.656,8.928-6.481
		c4.861-1.784,11.784-2.88,20.336-2.864c8.559-0.008,18.739,1.056,30.187,3.257c23.92,4.648,37.93,15.032,46.661,27.471
		c8.682,12.463,11.947,27.602,11.939,41.513C215.338,374.612,215.247,376.887,215.084,379.112z" style="fill: rgb(75, 75, 75);"></path>
	<path class="st0" d="M411.538,287.191c-7.463-2.709-16.17-3.879-26.088-3.888c-9.926,0-21.08,1.211-33.346,3.552
		c-27.439,5.18-46.129,18.24-57.259,34.37c-11.177,16.105-14.934,34.664-14.942,51.08c0,2.75,0.106,5.442,0.303,8.069
		c1.031,13.126,3.019,25.122,8.06,34.951c2.536,4.894,5.99,9.312,10.663,12.487c4.656,3.2,10.441,4.902,16.562,4.869
		c6.53-0.008,13.453-1.751,21.072-5.049l0.18-0.073l0.074-0.032c19.853-9.394,37.815-22.12,53.207-37.496
		c16.465-16.481,29.902-35.908,39.427-57.462l0.107-0.229l0.065-0.18c2.177-5.728,3.355-11.202,3.364-16.498
		c0.017-5.245-1.236-10.336-3.797-14.697C425.352,294.367,418.952,289.883,411.538,287.191z M414.01,326.036
		c-8.682,19.526-20.876,37.169-35.834,52.144c-14.018,13.993-30.36,25.58-48.412,34.124c-6.096,2.644-10.859,3.633-14.271,3.617
		c-3.257-0.024-5.294-0.745-7.144-1.972c-2.725-1.808-5.393-5.581-7.43-11.702c-2.038-6.047-3.331-14.1-4.002-23.134
		c-0.164-2.21-0.254-4.492-0.254-6.808c-0.008-13.911,3.249-29.05,11.939-41.513c8.732-12.439,22.733-22.823,46.653-27.471
		c11.457-2.201,21.637-3.266,30.196-3.257c11.424-0.041,19.877,1.989,24.526,4.828c2.349,1.408,3.789,2.897,4.738,4.517
		c0.941,1.637,1.498,3.527,1.514,6.252C416.236,318.344,415.589,321.838,414.01,326.036z" style="fill: rgb(75, 75, 75);"></path>
	<path class="st0" d="M92.482,227.42c5.826,2.569,12.537,3.617,20.188,3.625c10.867-0.008,23.772-2.16,39.01-6.408
		c19.41-5.425,39.697-10.712,58.084-14.623c18.347-3.912,34.926-6.407,46.236-6.383c11.309-0.024,27.888,2.471,46.235,6.383
		c18.388,3.912,38.674,9.198,58.076,14.623l2.259-8.069l-2.251,8.069c15.238,4.248,28.142,6.391,39.01,6.408
		c10.164-0.033,18.822-1.841,25.63-6.76c3.364-2.446,6.121-5.728,7.864-9.508c1.759-3.772,2.537-7.938,2.528-12.193
		c-0.008-5.254-1.121-10.703-3.117-16.489l-0.074-0.204l-0.065-0.164c-9.616-24.076-24.026-45.671-42.062-63.747
		C355.664,87.651,308.405,66.472,256,66.465c-52.406,0.007-99.664,21.186-134.025,55.506c-18.044,18.085-32.455,39.68-42.07,63.756
		l-0.074,0.188l-0.065,0.173c-1.997,5.785-3.118,11.243-3.118,16.497c-0.008,4.255,0.769,8.412,2.528,12.193
		C81.788,220.489,86.689,224.9,92.482,227.42z M95.568,191.742c8.74-21.841,21.833-41.465,38.264-57.922
		C165.224,102.495,208.145,83.248,256,83.224c47.855,0.024,90.776,19.271,122.176,50.604c16.423,16.448,29.516,36.072,38.256,57.913
		c1.522,4.41,2.169,8.093,2.16,10.842c0,2.275-0.401,3.895-0.966,5.115c-0.876,1.776-2.062,3.084-4.918,4.402
		c-2.823,1.269-7.316,2.194-13.38,2.186c-8.608,0.008-20.262-1.808-34.509-5.794v0.008c-19.615-5.483-40.171-10.852-59.099-14.877
		c-18.96-4.018-36.162-6.734-49.721-6.751c-13.56,0.017-30.761,2.733-49.722,6.751c-18.928,4.026-39.492,9.394-59.107,14.877
		c-14.247,3.985-25.891,5.801-34.5,5.786c-8.126,0.032-13.29-1.662-15.728-3.519c-1.26-0.934-1.997-1.849-2.578-3.068
		c-0.564-1.22-0.957-2.84-0.957-5.115C93.399,199.835,94.046,196.152,95.568,191.742z" style="fill: rgb(75, 75, 75);"></path>
</g>
</svg>
