<!--?xml version="1.0" encoding="utf-8"?-->
<!-- Generator: Adobe Illustrator 18.1.1, SVG Export Plug-In . SVG Version: 6.00 Build 0)  -->

<svg version="1.1" id="_x32_" xmlns="http://www.w3.org/2000/svg" xmlns:xlink="http://www.w3.org/1999/xlink" x="0px" y="0px" viewBox="0 0 512 512" style="width: 256px; height: 256px; opacity: 1;" xml:space="preserve">
<style type="text/css">
	.st0{fill:#4B4B4B;}
</style>
<g>
	<path class="st0" d="M437.023,74.985C390.779,28.695,326.613-0.016,256.011,0C185.402-0.016,121.228,28.695,74.984,74.985
		C28.702,121.22-0.016,185.395,0,255.996c-0.016,70.602,28.702,134.784,74.984,181.019C121.22,483.298,185.402,512.008,256.011,512
		c70.594,0.008,134.768-28.702,181.012-74.985C483.298,390.78,512.015,326.598,512,255.996
		C512.015,185.395,483.298,121.22,437.023,74.985z M256.004,300.437c-25.275-0.008-45.755-20.487-45.762-45.762
		c0.007-25.275,20.487-45.754,45.762-45.762c25.274,0.008,45.754,20.487,45.762,45.762
		C301.758,279.95,281.278,300.429,256.004,300.437z M397.626,397.618c-31.096,31.066-72.141,51.871-118.042,57.241
		c1.974-110.153,68.2-147.412,89.285-157.602c7.834-3.785,8.503-12.365,8.503-12.365l10.772-73.282
		c0.621-4.206-0.483-8.487-3.063-11.868c-2.58-3.381-5.394-6.249-13.849-7.741c0,0-65.519-12.941-115.229-12.941
		c-49.695,0-115.229,12.941-115.229,12.941c-8.456,1.492-11.269,4.36-13.85,7.741c-2.58,3.381-3.684,7.662-3.062,11.868
		l10.788,73.282c0,0,0.652,8.58,8.487,12.365c21.086,10.19,87.311,47.448,89.286,157.594c-45.91-5.371-86.954-26.176-118.05-57.234
		c-30.917-30.948-51.668-71.782-57.164-117.443c3.008-1.656,7.368-3.412,13.446-4.275c16.415-2.324,43.772-3.816,43.772-3.816
		l-7.29-55.213c0,0-32.433,5.806-48.187,3.366c7.383-40.975,27.14-77.55,55.423-105.864c36.334-36.288,86.239-58.648,141.638-58.664
		c55.384,0.016,105.281,22.376,141.615,58.664c28.282,28.314,48.039,64.889,55.423,105.864c-15.754,2.44-48.164-3.366-48.164-3.366
		l-7.306,55.213c0,0,27.358,1.492,43.772,3.816c6.07,0.863,10.43,2.619,13.438,4.267
		C449.302,325.836,428.543,366.663,397.626,397.618z" style="fill: rgb(75, 75, 75);"></path>
	<path class="st0" d="M256.004,224.83c-8.262,0-15.677,3.326-21.101,8.743c-5.418,5.425-8.744,12.832-8.744,21.101
		c0,8.262,3.326,15.676,8.744,21.102c5.424,5.416,12.84,8.735,21.101,8.743c8.261-0.008,15.676-3.327,21.101-8.743
		c5.417-5.426,8.736-12.84,8.744-21.102c-0.008-8.27-3.327-15.676-8.744-21.101C271.68,228.157,264.265,224.83,256.004,224.83z" style="fill: rgb(75, 75, 75);"></path>
</g>
</svg>
